<?xml version="1.0" encoding="UTF-8" standalone="no"?>
<!-- Created with Inkscape (http://www.inkscape.org/) -->

<svg
   xmlns:dc="http://purl.org/dc/elements/1.1/"
   xmlns:cc="http://creativecommons.org/ns#"
   xmlns:rdf="http://www.w3.org/1999/02/22-rdf-syntax-ns#"
   xmlns:svg="http://www.w3.org/2000/svg"
   xmlns="http://www.w3.org/2000/svg"
   xmlns:sodipodi="http://sodipodi.sourceforge.net/DTD/sodipodi-0.dtd"
   xmlns:inkscape="http://www.inkscape.org/namespaces/inkscape"
   width="556.99036"
   height="176.44786"
   id="svg2"
   version="1.1"
   inkscape:version="0.48.4 r9939"
   sodipodi:docname="New document 1">
  <defs
     id="defs4" />
  <sodipodi:namedview
     id="base"
     pagecolor="#ffffff"
     bordercolor="#666666"
     borderopacity="1.0"
     inkscape:pageopacity="0.0"
     inkscape:pageshadow="2"
     inkscape:zoom="0.59113372"
     inkscape:cx="297.88866"
     inkscape:cy="119.13981"
     inkscape:document-units="px"
     inkscape:current-layer="layer1"
     showgrid="false"
     fit-margin-top="10"
     fit-margin-left="10"
     fit-margin-right="10"
     fit-margin-bottom="10"
     inkscape:window-width="1360"
     inkscape:window-height="702"
     inkscape:window-x="0"
     inkscape:window-y="27"
     inkscape:window-maximized="1" />
  <metadata
     id="metadata7">
    <rdf:RDF>
      <cc:Work
         rdf:about="">
        <dc:format>image/svg+xml</dc:format>
        <dc:type
           rdf:resource="http://purl.org/dc/dcmitype/StillImage" />
        <dc:title></dc:title>
      </cc:Work>
    </rdf:RDF>
  </metadata>
  <g
     inkscape:label="Layer 1"
     inkscape:groupmode="layer"
     id="layer1"
     transform="translate(-72.280571,-125.95841)">
    <path
       style="fill:#000000"
       d="m 281.96321,291.21395 c -0.29494,-0.30399 -0.45141,-6.16349 -0.34769,-13.02111 l 0.18856,-12.46837 -10.2581,0.45797 c -15.7393,0.70267 -77.09982,0.0195 -78.49776,-0.87396 -0.92768,-0.5929 -1.06755,-3.97017 -0.55802,-13.47283 0.374,-6.97487 1.06508,-22.73093 1.53573,-35.01347 0.83273,-21.73134 0.80203,-22.34679 -1.14127,-22.8865 -1.09835,-0.30505 -1.99413,-0.74505 -1.99061,-0.97779 0.0194,-1.28134 4.30591,-8.27936 5.06437,-8.26789 1.05715,0.016 4.96653,6.30026 4.94168,7.94367 -0.009,0.62251 -0.62367,1.12266 -1.36499,1.11145 -1.8206,-0.0275 -2.86877,14.31477 -3.34435,45.76105 l -0.37041,24.49246 9.75865,-0.49814 c 5.36725,-0.27398 24.71947,-0.2742 43.00492,-5.1e-4 l 33.24628,0.4978 0.22593,-14.93927 c 0.12427,-8.2166 0.56895,-15.14417 0.9882,-15.3946 0.41924,-0.25043 27.30888,-0.18814 59.75474,0.13842 l 58.99247,0.59374 0.14815,27.96161 c 0.0815,15.3789 -0.22042,28.37641 -0.67087,28.88336 -0.45045,0.50696 -4.54026,0.99716 -9.08847,1.08932 -17.2137,0.34883 -109.70453,-0.58789 -110.21714,-1.11624 z m 101.25287,-1.30398 16.2732,-0.34455 0.13679,-26.64381 0.13679,-26.64381 -56.99883,-0.50837 c -31.34936,-0.27959 -57.33939,-0.30856 -57.75563,-0.0644 -0.41624,0.24421 -0.9391,12.49797 -1.16191,27.23061 l -0.40511,26.7866 41.75075,0.26612 c 22.96291,0.14637 49.07369,0.11108 58.02395,-0.0784 z m -31.54349,-14.96196 c 0.009,-0.60877 0.68775,-0.83766 1.50787,-0.50863 1.65575,0.66426 2.08891,-0.85629 0.52809,-1.85386 -0.54479,-0.3482 -0.97733,-1.50643 -0.96119,-2.57385 0.0212,-1.40355 0.72128,-1.93029 2.52907,-1.90295 1.37484,0.0208 2.49218,0.53589 2.48297,1.14467 -0.009,0.60877 -0.68774,0.83766 -1.50786,0.50863 -1.65575,-0.66426 -2.08891,0.85629 -0.52809,1.85386 0.54479,0.3482 0.97733,1.50643 0.96118,2.57385 -0.0212,1.40355 -0.72127,1.93029 -2.52906,1.90295 -1.37484,-0.0208 -2.49218,-0.53589 -2.48298,-1.14467 z m 15.01074,-0.59653 c 0.0182,-1.20401 -0.81473,-2.10954 -2.21386,-2.40681 l -2.24305,-0.47657 2.26099,-0.70947 c 1.2799,-0.40162 2.27335,-1.52662 2.28947,-2.59263 0.0157,-1.03573 0.47843,-1.87635 1.02836,-1.86803 0.54994,0.008 0.98707,0.86255 0.97141,1.89828 -0.0161,1.066 0.94285,2.22053 2.21002,2.66067 l 2.2385,0.77752 -2.25644,0.40852 c -1.40747,0.25483 -2.26742,1.13476 -2.28563,2.33876 -0.0161,1.06163 -0.47914,1.92342 -1.02907,1.91511 -0.54994,-0.008 -0.98675,-0.88373 -0.9707,-1.94535 z m 14.86203,1.40535 c -0.0589,-0.41344 -0.0487,-1.08836 0.0227,-1.49983 0.0713,-0.41147 -0.77015,-0.76173 -1.87002,-0.77837 -2.55033,-0.0386 -2.50917,-1.48322 0.14515,-5.09402 2.70256,-3.67645 3.98718,-3.62576 3.93,0.15505 -0.0249,1.64981 0.36225,3.00582 0.86044,3.01336 0.4982,0.008 0.36876,1.12719 -0.28766,2.48813 -1.15276,2.39005 -2.58,3.26438 -2.80059,1.71565 z m -67.97409,-9.0228 c -0.83354,-0.97858 -1.79875,-2.76311 -2.14491,-3.96562 -0.70588,-2.45211 1.88906,-9.29589 3.51538,-9.2713 1.33466,0.0202 1.34357,1.70584 0.0132,2.50049 -1.40911,0.8417 -1.38751,8.82614 0.0278,10.28493 0.64092,0.6606 0.92652,1.43277 0.63466,1.71592 -0.29185,0.28316 -1.21262,-0.28583 -2.04616,-1.26442 z m 12.68539,-1.28696 c 0.87457,-1.20928 1.60752,-3.34832 1.62877,-4.7534 0.0213,-1.40508 -0.64668,-3.56531 -1.48428,-4.80049 -1.83227,-2.70198 -0.38687,-2.97854 1.90745,-0.36496 2.93583,3.34434 1.39001,12.19367 -2.12073,12.14058 -1.35132,-0.0204 -1.34363,-0.26874 0.0688,-2.22173 z m -26.02301,-5.67165 c 0.69968,-3.55309 1.57137,-5.47687 2.47546,-5.46319 0.77538,0.0117 1.252,0.79667 1.07259,1.76642 -0.47612,2.57351 1.46974,2.88664 2.65174,0.42672 1.6278,-3.38776 2.86726,-2.43006 2.13007,1.64583 -0.37206,2.0571 -0.69333,4.52753 -0.71393,5.48983 -0.0206,0.9623 -0.76485,1.73863 -1.65387,1.72518 -1.19317,-0.018 -1.47876,-0.68968 -1.09076,-2.56518 0.40383,-1.95191 0.14903,-2.47491 -1.09942,-2.25667 -0.89378,0.15624 -1.78408,1.28968 -1.97844,2.51877 -0.19436,1.22909 -0.92039,2.22612 -1.6134,2.21564 -0.98152,-0.0148 -1.02131,-1.23121 -0.18004,-5.50335 z m 16.59255,4.75145 c 0.008,-0.54994 0.98475,-0.98522 2.16986,-0.9673 2.06805,0.0313 2.08539,-0.0464 0.43129,-1.93069 -0.94791,-1.07979 -1.42062,-2.4371 -1.05048,-3.01623 0.89182,-1.39537 5.55905,-1.28772 5.53764,0.12776 -0.009,0.60877 -0.68775,0.83766 -1.50786,0.50863 -1.75991,-0.70605 -1.98199,0.45687 -0.39885,2.08862 1.72376,1.77668 0.15158,4.26998 -2.66563,4.22738 -1.39211,-0.0211 -2.52429,-0.48823 -2.51597,-1.03817 z m 19.52801,-1.70489 c -0.37479,-0.62745 1.4049,-0.95228 4.7045,-0.85867 3.88772,0.1103 4.76897,0.37232 3.29459,0.97964 -2.80509,1.15545 -7.27705,1.08782 -7.99909,-0.12097 z m 15.06882,-1.70549 c -0.44632,-0.74721 4.74775,-0.99516 16.97289,-0.81027 9.68881,0.14653 17.39547,0.61148 17.12592,1.03323 -0.79245,1.23989 -33.35217,1.02699 -34.09881,-0.22296 z m -14.50839,-2.2865 c 0.008,-0.54993 2.03989,-0.96926 4.51461,-0.93183 2.47472,0.0374 4.49268,0.51799 4.48436,1.06793 -0.008,0.54994 -2.03989,0.96926 -4.51461,0.93184 -2.47471,-0.0374 -4.49268,-0.518 -4.48436,-1.06794 z m 28.6162,-5.52025 c -0.35377,-0.59225 0.30379,-2.24396 1.46124,-3.67048 2.74863,-3.38763 2.81339,-5.65864 0.13842,-4.85395 -1.10516,0.33245 -2.00257,0.15451 -1.99425,-0.39542 0.0284,-1.87706 4.18475,-2.35163 5.82143,-0.66469 1.42817,1.47203 1.36663,1.86957 -0.71097,4.59255 l -2.2745,2.98103 2.11303,0.032 c 2.99172,0.0452 1.84183,2.45824 -1.32839,2.78754 -1.42054,0.14755 -2.87225,-0.21629 -3.22601,-0.80854 z m 44.0509,11.55171 c -2.0458,-1.11989 -3.71313,-2.46622 -3.70518,-2.99185 0.008,-0.52562 1.86346,-1.86399 4.12336,-2.97417 l 4.1089,-2.01848 0.50751,2.06798 c 0.50031,2.03866 1.00558,2.07546 35.63691,2.59593 19.32117,0.29021 42.2807,0.33963 51.02117,0.10948 l 15.89175,-0.41849 -0.2258,-27.59449 C 516.81617,218.46039 516.55123,198.277 516.3516,188.7854 l -0.36298,-17.25746 -12.36525,-0.18701 -12.36526,-0.18701 -0.17226,11.39029 c -0.1661,10.98299 -0.25305,11.4087 -2.4303,11.90497 -1.24193,0.28306 -41.40227,-0.16299 -89.24522,-0.99126 l -86.98717,-1.50593 -0.13474,-10.97058 c -0.0741,-6.03382 -0.31968,-11.16119 -0.5457,-11.39416 -0.22603,-0.23296 -1.84449,0.14497 -3.59659,0.83986 -2.79972,1.11039 -3.33444,1.05331 -4.41419,-0.4712 -1.03759,-1.46497 -2.68439,-1.71172 -10.59312,-1.58723 l -9.36454,0.14741 -0.49701,14.61236 -0.497,14.61237 -13.2301,0.30218 c -7.27656,0.1662 -13.56464,0.10386 -13.97352,-0.13852 -0.40889,-0.2424 -0.64856,-6.71346 -0.53261,-14.38012 0.13711,-9.06598 -0.15613,-13.94494 -0.83873,-13.95526 -0.57724,-0.009 -2.37005,0.64188 -3.984,1.44578 -2.68347,1.33665 -3.01239,1.31029 -3.84574,-0.30819 -0.82145,-1.5954 -2.49905,-1.7645 -17.02087,-1.71563 l -16.1096,0.0542 -1.40644,3.22798 c -1.62858,3.73781 -6.80335,8.27653 -10.39991,9.12161 -3.54845,0.83376 -9.39424,-0.40297 -12.30722,-2.60372 -2.09908,-1.58584 -5.08212,-6.26512 -6.16832,-9.67577 -0.15427,-0.4844 -2.15653,0.0409 -4.44947,1.16729 -3.83107,1.882 -4.19375,1.90817 -4.47427,0.32281 -0.28447,-1.60769 -3.4211,-1.74931 -46.04415,-2.07886 -41.426222,-0.32032 -45.736608,-0.5047 -45.714666,-1.95558 0.0214,-1.41514 2.326566,-1.56732 19.771996,-1.3053 39.67178,0.59598 72.25992,-0.10997 72.28194,-1.56558 0.0264,-1.74828 1.44253,-1.67068 5.0754,0.27814 3.13255,1.68041 4.90149,1.32546 4.93652,-0.99055 0.0387,-2.56064 6.24304,-8.33688 10.14019,-9.44056 2.1052,-0.59619 5.40912,-0.76247 7.34206,-0.36949 4.44703,0.90408 9.41124,5.6262 10.15463,9.6594 l 0.57172,3.10177 16.75645,0.25342 c 16.07841,0.24316 16.77951,0.17035 17.32626,-1.79827 l 0.56981,-2.05169 4.04599,2.14182 4.04598,2.14182 0.0986,-6.51958 0.0986,-6.51958 13.9984,0.21171 13.9984,0.2117 -0.0907,5.99932 -0.0907,5.99931 10.09246,0.15264 c 9.25157,0.13991 10.13856,-0.0133 10.64566,-1.83923 0.65004,-2.34054 1.0151,-2.3775 4.29682,-0.43508 1.36296,0.80673 2.8033,1.48764 3.20076,1.51314 0.39745,0.0255 0.94753,-6.58849 1.22239,-14.69776 l 0.49975,-14.74413 88.5917,1.08442 88.5917,1.08442 0.35194,15.10741 c 0.19356,8.30907 0.49468,15.24134 0.66915,15.40506 0.17447,0.16371 26.81487,0.45734 59.20088,0.65246 56.22987,0.33881 58.90674,0.27167 59.39595,-1.48981 0.28176,-1.01453 0.70272,-1.84172 0.93545,-1.8382 1.12138,0.017 8.27931,4.25747 8.26412,4.89585 -0.0225,0.95834 -5.84693,4.14174 -7.53083,4.11627 -0.72151,-0.0109 -1.58326,-0.76049 -1.91501,-1.66572 -0.5267,-1.43715 -1.96484,-1.58913 -11.34017,-1.19843 -5.90533,0.2461 -26.21804,0.22538 -45.13936,-0.046 l -34.40238,-0.49348 0.26492,26.25701 c 0.14572,14.44135 0.41833,35.37287 0.60581,46.51448 l 0.34087,20.25747 -49.52254,-0.74896 c -27.2374,-0.41192 -50.93288,-0.489 -52.65663,-0.17128 -1.72375,0.31772 -3.14345,1.19635 -3.15489,1.95251 -0.027,1.78851 -0.75743,1.68083 -5.23892,-0.7724 z m -136.47368,-68.90207 7.75065,0.0158 0.30067,-19.8811 c 0.33601,-22.2176 0.83637,-20.77812 -7.18811,-20.67929 -2.20066,0.0271 -6.81454,0.0837 -10.25307,0.12566 l -6.25187,0.0764 -0.29992,19.83106 c -0.16495,10.90709 -0.0326,20.10662 0.29417,20.44341 0.32675,0.33678 2.23721,0.48633 4.24546,0.33235 2.00826,-0.15399 7.13917,-0.27289 11.40202,-0.26423 z m -10.44133,-3.84134 c -0.31499,-0.32466 0.0919,-2.11573 0.90428,-3.98016 0.81234,-1.86443 1.58738,-4.51631 1.72231,-5.89307 0.16611,-1.69475 0.84252,-2.49416 2.09441,-2.47523 1.45585,0.022 1.69477,0.50416 1.12352,2.26725 l -0.72554,2.23928 2.4724,-2.21286 c 1.35982,-1.21708 3.11815,-2.19099 3.90739,-2.16426 0.79241,0.0269 -0.14922,1.32195 -2.10287,2.89227 l -3.53785,2.84367 2.14575,2.99602 c 1.18016,1.6478 1.86574,3.26767 1.52351,3.59971 -1.38092,1.33978 -3.10508,0.42502 -3.66138,-1.94256 -0.32428,-1.38007 -1.03096,-2.51588 -1.57042,-2.52404 -0.53946,-0.008 -0.99785,1.11004 -1.01864,2.48488 -0.0347,2.29388 -1.85655,3.33305 -3.27687,1.8691 z m 225.78624,-0.1798 c 0.3769,-0.36593 0.53039,-12.17746 0.34106,-26.24784 l -0.34416,-25.58249 -86.35142,-1.30594 -86.35144,-1.30594 -0.40177,26.56593 -0.40177,26.56592 86.41212,0.98786 c 47.52667,0.54332 86.72049,0.68844 87.09738,0.3225 z M 384.16551,176.46771 c 0.009,-0.62672 0.87249,-0.78115 2.09075,-0.37411 1.99147,0.66538 2.0117,0.59389 0.5045,-1.78405 -1.39713,-2.20431 -1.40171,-2.6127 -0.0415,-3.70724 1.7187,-1.38305 5.01688,-0.52791 4.01426,1.0408 -0.35633,0.55754 -1.17471,0.70734 -1.81862,0.3329 -0.78948,-0.45909 -0.77035,-0.23612 0.0588,0.68466 2.3245,2.58152 1.43903,4.96903 -1.82458,4.91967 -1.64981,-0.025 -2.9924,-0.52563 -2.98352,-1.11263 z m 23.00215,0.0318 c 0.0115,-0.76076 -0.9864,-1.73309 -2.21758,-2.16073 l -2.2385,-0.77752 2.25644,-0.40852 c 1.40747,-0.25483 2.26742,-1.13475 2.28563,-2.33876 0.0161,-1.06162 0.47914,-1.92342 1.02907,-1.9151 0.54994,0.008 0.98675,0.88372 0.9707,1.94535 -0.0182,1.204 0.81473,2.10953 2.21386,2.4068 l 2.24304,0.47657 -2.26098,0.70948 c -1.24354,0.39021 -2.2704,1.33191 -2.28191,2.09268 -0.0115,0.76076 -0.47087,1.3764 -1.0208,1.36809 -0.54994,-0.008 -0.99047,-0.63757 -0.97897,-1.39834 z m 10.99301,0.54564 c 0.0102,-0.67559 0.81805,-0.86301 2.00727,-0.46567 2.20017,0.73512 2.80739,-1.26982 0.96096,-3.17296 -0.77092,-0.79459 -0.76348,-1.28689 0.0266,-1.75882 1.89317,-1.13084 1.22364,-2.70075 -0.88171,-2.06742 -1.10515,0.33246 -2.00256,0.15451 -1.99425,-0.39543 0.023,-1.52261 3.96475,-2.37947 5.37888,-1.16928 0.68673,0.58771 1.19128,2.99528 1.12123,5.35019 -0.12148,4.08476 -0.277,4.2938 -3.38172,4.54583 -1.93788,0.15731 -3.24745,-0.19319 -3.23726,-0.86644 z m 18.43324,0.17567 c -0.45719,-0.7654 0.0773,-0.87943 1.69665,-0.362 1.93118,0.61704 2.13883,0.51161 1.13406,-0.57579 -2.76052,-2.98749 0.27892,-7.89964 3.09317,-4.99896 0.83085,0.85637 0.63072,1.14244 -0.78426,1.12105 -1.47761,-0.0223 -1.63718,0.24194 -0.71807,1.18927 2.09662,2.16101 1.36577,4.82121 -1.31342,4.78069 -1.34239,-0.0203 -2.74105,-0.53972 -3.10813,-1.15426 z m 14.57894,-0.73152 c 0.0171,-1.13233 -0.39164,-1.80625 -0.90836,-1.4976 -0.51673,0.30867 -1.21521,0.0996 -1.55217,-0.4645 -0.33697,-0.56413 0.0888,-1.01508 0.94616,-1.00212 0.89225,0.0135 1.57177,-0.83156 1.58908,-1.97619 0.0166,-1.09988 0.4802,-1.99297 1.03013,-1.98465 0.54994,0.008 0.98946,0.70454 0.97672,1.54716 -0.0127,0.84264 0.98306,1.95429 2.21289,2.47037 2.17231,0.91155 2.08431,1.15158 -0.52157,1.42256 -0.68866,0.0716 -1.20136,0.9077 -1.13933,1.85798 0.062,0.95028 -0.51216,1.71833 -1.27596,1.70678 -0.7638,-0.0115 -1.37472,-0.94746 -1.35759,-2.07979 z m 13.4501,0.0124 c 0.39377,-1.23168 0.97589,-3.02308 1.2936,-3.98089 0.43024,-1.29705 0.0163,-1.74995 -1.62206,-1.77473 -3.40699,-0.0515 -1.8053,-2.48182 1.83605,-2.78592 3.69956,-0.30895 3.86932,0.46452 1.43821,6.55243 -1.74221,4.3628 -4.24496,6.05274 -2.9458,1.98911 z m -33.87675,-2.19343 c -0.30866,-0.51672 -0.0996,-1.2152 0.46451,-1.55217 0.56413,-0.33697 1.01508,0.0888 1.00211,0.94616 -0.0266,1.75633 -0.63046,2.00586 -1.46662,0.60601 z m -37.95388,-1.52989 c -0.294,-0.49218 0.14384,-1.44078 0.97296,-2.10798 1.99505,-1.60542 1.92272,-2.72161 -0.21164,-3.26635 -1.63265,-0.4167 -1.62722,-0.49329 0.0854,-1.20495 2.71448,-1.12795 4.45989,1.04705 2.84597,3.54642 -0.75405,1.16777 -0.85674,1.96231 -0.25478,1.97141 0.5546,0.008 1.00155,0.4652 0.99323,1.01514 -0.0187,1.23647 -3.6973,1.27491 -4.43117,0.0463 z m -46.29951,-5.01402 c -1.87493,-1.93251 -1.35113,-9.24832 0.79721,-11.13423 2.64161,-2.31895 3.589,-1.99184 1.71918,0.59359 -2.04898,2.83317 -2.12189,8.16196 -0.13964,10.20511 1.21536,1.25265 1.25317,1.59057 0.17624,1.57428 -0.7542,-0.0114 -1.90304,-0.56884 -2.55299,-1.23875 z m 13.37506,-1.3479 c 1.84634,-3.41257 1.84952,-4.04442 0.0385,-7.64907 -1.84799,-3.67822 -1.20121,-4.41172 1.46603,-1.66257 2.34797,2.42008 2.62005,7.6804 0.53494,10.3426 -2.20596,2.81652 -3.7098,2.05632 -2.03945,-1.03096 z m -25.17812,-1.13311 c -0.76772,-2.0948 0.41499,-6.03378 2.38581,-7.94588 1.73566,-1.68395 5.53846,-1.63827 5.36765,0.0645 -0.0551,0.54923 -0.96249,0.8473 -2.01645,0.66238 -2.09361,-0.36733 -3.60107,3.12283 -2.78016,6.4368 0.40165,1.62145 0.54332,1.57435 1.21141,-0.40263 0.41611,-1.23135 1.37902,-2.2294 2.13978,-2.2179 1.503,0.0227 1.70596,0.98341 0.7246,3.42956 -0.81686,2.03611 -6.28425,2.01528 -7.03264,-0.0267 z m 16.06521,0.63812 c -0.44913,-0.75191 0.0242,-0.88625 1.44736,-0.41078 2.41557,0.80708 2.83548,-0.59077 0.72105,-2.40029 -0.78228,-0.66947 -1.16624,-1.85551 -0.85326,-2.63564 0.63952,-1.59408 5.36292,-1.90032 5.33942,-0.34619 -0.008,0.54994 -0.74514,0.98884 -1.63738,0.97535 -1.32247,-0.02 -1.39834,0.25373 -0.41057,1.48122 0.66643,0.82817 0.9402,2.18247 0.60839,3.00954 -0.69992,1.74463 -4.23576,1.96619 -5.21501,0.32679 z m 19.09265,-1.60434 c -0.37189,-0.6226 1.35759,-0.97958 4.51461,-0.93183 3.15702,0.0477 4.87492,0.45686 4.48436,1.06793 -0.34819,0.5448 -2.37977,0.96412 -4.5146,0.93184 -2.13484,-0.0323 -4.1528,-0.51286 -4.48437,-1.06794 z m 14.7835,-1.371 c 1.17647,-1.14142 84.49419,-0.35731 85.18649,0.80169 0.46315,0.77536 -11.85139,0.90187 -42.56908,0.43731 -23.77141,-0.35951 -42.94924,-0.91706 -42.61741,-1.239 z m -14.23819,-1.62109 c -1.05737,-0.70622 0.0988,-0.96799 4.0142,-0.90877 3.9153,0.0592 5.06313,0.35582 3.98489,1.02974 -0.83297,0.52063 -2.63936,0.92957 -4.0142,0.90877 -1.37485,-0.0208 -3.16805,-0.48417 -3.98489,-1.02974 z m 55.77742,-9.86419 c 0.23616,-5.75621 2.48729,-7.20029 2.4017,-1.54067 -0.0323,2.13558 0.47305,4.43099 1.12299,5.10089 0.91911,0.94734 0.63734,1.20995 -1.26802,1.18173 -2.27019,-0.0336 -2.43558,-0.38115 -2.25667,-4.74195 z m -224.20837,27.22136 c 1.741,-0.57754 3.17027,-1.36774 3.17614,-1.756 0.006,-0.38826 -1.53599,-2.25105 -3.42635,-4.13953 l -3.43702,-3.43361 -2.78929,2.39317 c -5.07367,4.35312 -5.42438,5.48776 -2.12428,6.87257 3.05354,1.28134 4.88852,1.29487 8.6008,0.0634 z m -9.35577,-15.28614 c -3.36437,-3.55131 -3.79266,-3.73908 -4.97006,-2.17894 -1.93999,2.57058 -2.05622,8.17415 -0.2428,11.70268 0.88683,1.72551 1.28104,1.57508 4.92918,-1.88102 l 3.96526,-3.75653 -3.68162,-3.88619 z m 17.67648,4.0085 c 0.0342,-2.2645 -0.49403,-4.90271 -1.17396,-5.8627 -1.12854,-1.59341 -1.57856,-1.40528 -5.16664,2.15977 l -3.93043,3.90519 3.82897,3.62844 c 3.48154,3.29921 3.94469,3.47682 5.10438,1.95751 0.70148,-0.91902 1.30343,-3.52371 1.33768,-5.78821 z m -7.29999,-6.02115 c 2.67239,-2.6697 3.09819,-3.58624 2.07344,-4.46322 -2.41611,-2.06768 -7.12626,-2.42021 -11.09843,-0.83064 l -3.87935,1.55241 3.31801,3.52856 c 1.82491,1.94071 3.97171,3.53844 4.77066,3.55053 0.79896,0.0121 2.966,-1.48986 4.81567,-3.33764 z m -25.26342,43.03297 c 0.008,-0.54994 1.81492,-0.97267 4.01467,-0.9394 2.19974,0.0333 3.99273,0.51043 3.98442,1.06037 -0.008,0.54994 -1.81492,0.97267 -4.01467,0.9394 -2.19975,-0.0333 -3.99274,-0.51044 -3.98442,-1.06037 z m -17.63065,-20.36613 c -0.0216,-0.87888 -1.04423,-2.10152 -2.27257,-2.717 -1.82121,-0.91252 -1.9043,-1.12654 -0.45028,-1.15975 0.98067,-0.0224 2.20528,-1.04695 2.72135,-2.27679 0.73924,-1.76166 0.94604,-1.85779 0.97474,-0.45309 0.0201,0.98065 1.04266,2.20522 2.27249,2.7213 1.76168,0.73923 1.8578,0.94604 0.45309,0.97473 -0.98064,0.0201 -2.20521,1.04266 -2.72129,2.2725 -0.61234,1.45925 -0.95194,1.68093 -0.97753,0.6381 z M 122.4742,154.07522 c -0.67213,-0.83525 -2.26528,-1.53443 -3.54034,-1.55371 -1.27504,-0.0193 -2.62438,-0.54754 -2.99852,-1.1739 -0.47056,-0.78777 -0.95226,-0.66958 -1.56263,0.38342 -0.48532,0.83723 -1.66774,1.30414 -2.62761,1.03756 -1.43013,-0.39717 -1.70143,-1.51303 -1.50262,-6.18043 0.2089,-4.904 0.5271,-5.73492 2.28908,-5.97762 1.12554,-0.15503 3.00964,0.2525 4.18687,0.90563 1.67453,0.92902 2.00838,1.79954 1.53373,3.99922 -0.35419,1.64151 -0.11043,3.23492 0.58562,3.82856 0.88426,0.75414 1.23429,0.21814 1.35477,-2.07456 0.10039,-1.90983 1.04292,-3.78259 2.46604,-4.89976 2.73554,-2.14743 3.59884,-1.69138 2.05746,1.08689 -1.39683,2.51774 -1.54475,8.80682 -0.22693,9.64906 1.22179,0.78089 1.28061,2.51966 0.0846,2.50157 -0.48261,-0.007 -1.42739,-0.69667 -2.09953,-1.53193 z m 8.991,0.66367 c 0.008,-0.50022 0.46791,-1.18077 1.02298,-1.51233 1.40911,-0.8417 1.38752,-8.82614 -0.0278,-10.28493 -0.64093,-0.66061 -0.89126,-1.46698 -0.55631,-1.79196 0.33495,-0.32497 1.53222,0.36071 2.6606,1.52375 3.26304,3.36325 2.29374,10.99339 -1.57676,12.41188 -0.84506,0.30969 -1.53028,0.15381 -1.52271,-0.34641 z m -5.62387,-5.80069 c 0.23363,-3.31347 0.61406,-3.84373 2.92416,-4.07578 2.48347,-0.24949 2.64206,-0.0203 2.44679,3.5374 -0.1838,3.34862 -0.53396,3.8367 -2.92416,4.07579 -2.56288,0.25637 -2.70028,0.0578 -2.44679,-3.53741 z m 433.55213,8.65099 c -1.78567,-2.21905 -1.53956,-8.11959 0.41789,-10.01872 1.4735,-1.42959 1.56348,-1.18077 1.04296,2.88396 -0.31532,2.4624 -0.0714,5.41449 0.54649,6.61208 1.29896,2.51795 -0.10713,2.88408 -2.00734,0.52268 z m 11.28621,-1.34275 c 0.79343,-2.16993 0.83509,-4.10493 0.13989,-6.49863 -1.06593,-3.67005 0.10959,-4.62796 1.75805,-1.4326 1.48695,2.88233 1.1403,7.71929 -0.67976,9.48512 -2.28025,2.21231 -2.49508,1.93828 -1.21816,-1.55389 z m -21.51868,-1.04754 c -3.437,-3.91524 -1.14523,-9.18963 3.95943,-9.11243 1.87298,0.0283 3.69473,0.53587 4.04836,1.12788 1.01532,1.69977 -0.373,2.34194 -2.01857,0.93367 -2.48487,-2.12652 -4.6982,-0.5434 -4.39885,3.14634 0.22924,2.82565 0.63194,3.26154 3.01486,3.26342 3.02562,0.002 3.62988,1.03696 1.13886,1.94988 -2.62568,0.96227 -4.03168,0.64192 -5.74409,-1.30876 z m 14.99239,1.38894 c -1.25794,-1.29657 -0.62006,-2.27634 1.10922,-1.70373 1.54268,0.51082 1.53006,0.39836 -0.11054,-0.98513 -1.05705,-0.89138 -1.58701,-2.22234 -1.23464,-3.10066 0.72735,-1.81299 3.26026,-1.99915 4.26707,-0.31361 0.48752,0.81616 0.11751,0.96422 -1.19837,0.47947 -1.78082,-0.656 -1.79208,-0.61163 -0.17446,0.68775 2.15317,1.72957 2.19949,4.26484 0.092,5.03719 -1.96972,0.72188 -1.95103,0.72257 -2.75032,-0.1013 z"
       id="path3180"
       inkscape:connector-curvature="0" />
  </g>
</svg>
