<?xml version="1.0" encoding="UTF-8" standalone="no"?>
<!-- Created with Inkscape (http://www.inkscape.org/) -->

<svg
   xmlns:dc="http://purl.org/dc/elements/1.1/"
   xmlns:cc="http://creativecommons.org/ns#"
   xmlns:rdf="http://www.w3.org/1999/02/22-rdf-syntax-ns#"
   xmlns:svg="http://www.w3.org/2000/svg"
   xmlns="http://www.w3.org/2000/svg"
   xmlns:sodipodi="http://sodipodi.sourceforge.net/DTD/sodipodi-0.dtd"
   xmlns:inkscape="http://www.inkscape.org/namespaces/inkscape"
   width="554.20477"
   height="203.46452"
   id="svg2"
   version="1.1"
   inkscape:version="0.48.4 r9939"
   sodipodi:docname="New document 1">
  <defs
     id="defs4" />
  <sodipodi:namedview
     id="base"
     pagecolor="#ffffff"
     bordercolor="#666666"
     borderopacity="1.0"
     inkscape:pageopacity="1"
     inkscape:pageshadow="2"
     inkscape:zoom="1.2775"
     inkscape:cx="367.73719"
     inkscape:cy="60.85809"
     inkscape:document-units="px"
     inkscape:current-layer="layer1"
     showgrid="false"
     fit-margin-top="10"
     fit-margin-left="10"
     fit-margin-right="10"
     fit-margin-bottom="10"
     inkscape:window-width="1366"
     inkscape:window-height="702"
     inkscape:window-x="0"
     inkscape:window-y="27"
     inkscape:window-maximized="1" />
  <metadata
     id="metadata7">
    <rdf:RDF>
      <cc:Work
         rdf:about="">
        <dc:format>image/svg+xml</dc:format>
        <dc:type
           rdf:resource="http://purl.org/dc/dcmitype/StillImage" />
        <dc:title></dc:title>
      </cc:Work>
    </rdf:RDF>
  </metadata>
  <g
     inkscape:label="Layer 1"
     inkscape:groupmode="layer"
     id="layer1"
     transform="translate(-20.834241,-16.898607)">
    <path
       style="fill:#000000"
       d="m 331.28502,207.55888 2e-5,-2.45372 1.61468,2.01786 c 1.24427,1.55496 1.96717,1.90597 3.15129,1.53014 2.23273,-0.70864 1.91877,-1.46506 -1.61815,-3.89853 -4.99671,-3.43782 -4.1164,-7.12062 1.64807,-6.89474 2.7005,0.10581 2.90883,0.25638 2.90883,2.10223 0,2.3854 -0.42648,2.48269 -2.05688,0.46923 -0.7783,-0.96116 -1.65634,-1.35544 -2.39083,-1.07359 -1.85662,0.71244 -1.36387,1.73471 1.66202,3.44802 5.28892,2.99468 4.08786,7.72184 -1.8753,7.38086 -2.97807,-0.17028 -3.04377,-0.22701 -3.04375,-2.62776 z m 10.96818,1.52219 c -3.06875,-3.39093 0.1879,-9.03968 4.16649,-7.22691 0.97984,0.44645 2.29158,0.55899 2.9508,0.25317 1.39895,-0.64899 4.49499,-0.57816 5.63921,0.129 0.44305,0.27382 0.80555,1.8989 0.80555,3.61127 0,1.71237 0.31548,3.11341 0.70107,3.11341 0.38558,0 0.70106,0.31547 0.70106,0.70106 0,0.38558 -0.90012,0.70106 -2.00028,0.70106 -1.97786,0 -1.9965,-0.0393 -1.66346,-3.50531 0.28849,-3.0024 0.16035,-3.50531 -0.89317,-3.50531 -1.05351,0 -1.18166,0.50291 -0.89316,3.50531 0.33304,3.46604 0.3144,3.50531 -1.66346,3.50531 -1.10016,0 -2.00028,-0.31548 -2.00028,-0.70106 0,-0.38559 0.31548,-0.70106 0.70106,-0.70106 0.38559,0 0.70106,-1.26192 0.70106,-2.80425 0,-1.54234 -0.31547,-2.80425 -0.70106,-2.80425 -0.38558,0 -0.70106,0.49699 -0.70106,1.10443 0,0.82066 -0.57027,1.04582 -2.21949,0.87633 -2.48339,-0.25523 -3.30025,0.8447 -1.64655,2.21715 0.9017,0.74835 1.32601,0.68771 2.47707,-0.35397 1.2054,-1.09088 1.38897,-1.11028 1.38897,-0.14683 0,1.48353 -1.90355,3.31351 -3.44673,3.31351 -0.68387,0 -1.76551,-0.57693 -2.40364,-1.28206 z m 3.18633,-5.86877 c -0.65432,-0.65433 -1.02822,-0.65433 -1.68255,0 -0.65432,0.65432 -0.46737,0.84127 0.84128,0.84127 1.30865,0 1.49559,-0.18695 0.84127,-0.84127 z m 12.5012,5.22291 c 0.0203,-1.75264 0.10698,-1.81638 0.95362,-0.70106 0.97972,1.29061 2.5294,1.66215 2.5294,0.60642 0,-0.34123 -0.78869,-1.1372 -1.75265,-1.76881 -3.18538,-2.08714 -1.63283,-5.50715 2.17001,-4.78019 1.0696,0.20447 1.68583,0.80492 1.68583,1.64267 0,1.65 -0.62939,1.68264 -1.80344,0.0935 -0.69129,-0.93568 -1.10313,-1.03303 -1.73523,-0.41019 -0.63488,0.62558 -0.31784,1.08091 1.35493,1.94593 3.50032,1.81008 2.53781,5.29962 -1.46179,5.29962 -1.67945,0 -1.95975,-0.27845 -1.94068,-1.92792 z m 7.68939,0.5258 c -2.8154,-2.81541 -1.11701,-7.01063 2.83817,-7.01063 2.43679,0 4.53415,2.66342 3.83414,4.86896 -1.12597,3.54762 -4.2603,4.55367 -6.67231,2.14167 z m 4.52752,-1.30953 c 0.54154,-1.70624 -0.79327,-5.19319 -1.85276,-4.84002 -1.65529,0.55176 -2.282,2.46154 -1.425,4.34245 0.96244,2.11232 2.68239,2.37341 3.27776,0.49757 z m 2.83364,2.01059 c -0.23831,-0.38559 -0.0992,-0.70106 0.30915,-0.70106 0.40834,0 0.74244,-1.26192 0.74244,-2.80425 0,-1.54234 -0.3341,-2.80425 -0.74244,-2.80425 -0.40834,0 -0.54746,-0.31548 -0.30915,-0.70106 0.72761,-1.1773 5.95903,-0.86957 5.95903,0.35053 0,0.58421 -0.62317,1.05159 -1.40213,1.05159 -1.11887,0 -1.40212,0.46738 -1.40212,2.31351 0,1.27242 0.37857,2.69207 0.84127,3.15478 0.65432,0.65432 0.35193,0.84127 -1.36075,0.84127 -1.21111,0 -2.397,-0.31548 -2.6353,-0.70106 z M 318.4312,188.86982 c -0.26032,-0.26032 -0.47331,-4.67294 -0.47331,-9.80583 l 0,-9.33253 -29.61987,-0.19023 c -16.29094,-0.10463 -65.26666,-0.28265 -108.83496,-0.39561 -43.5683,-0.11295 -79.44264,-0.43292 -79.720753,-0.71104 -0.27813,-0.27813 -0.58981,-11.54291 -0.69263,-25.03287 -0.10283,-13.48996 -0.28766,-29.33824 -0.41073,-35.2184 l -0.22378,-10.691185 -1.71753,0 c -0.94464,0 -1.71752,-0.0935 -1.71752,-0.20782 0,-0.11429 1.07341,-2.21684 2.38535,-4.67233 l 2.38536,-4.46452 2.171553,4.30181 c 2.56853,5.08823 2.5616,5.04286 0.76942,5.04286 -0.77117,0 -1.42453,0.39434 -1.45192,0.87632 -0.16904,2.974695 0.18685,68.198505 0.37314,68.384795 0.12595,0.12595 48.84607,0.41759 108.26693,0.6481 l 108.03794,0.41909 0,-14.80708 0,-14.80707 38.38316,0.41671 c 21.11074,0.22919 38.46327,0.48151 38.56118,0.5607 0.0979,0.0792 0.35832,5.47709 0.57867,11.99531 0.22035,6.51823 0.50322,11.95391 0.62859,12.07928 0.12537,0.12538 1.79829,-0.5678 3.71759,-1.54038 3.77369,-1.91228 4.36146,-1.80335 4.36146,0.80826 l 0,1.70476 34.52732,-0.39479 c 18.99002,-0.21714 41.38896,-0.4059 49.77541,-0.41948 l 15.24811,-0.0247 0,-42.76479 0,-42.764795 -54.33232,0 -54.33232,0 0,13.32515 0,13.325155 -46.79591,-0.18024 -46.7959,-0.18024 -0.35053,-13.090775 -0.35053,-13.0908 -3.50531,1.65812 c -4.43479,2.09779 -4.5569,2.09742 -4.5569,-0.0137 l 0,-1.75266 -22.08346,0 -22.08346,0 0,9.82053 0,9.82052 -40.83688,-0.18092 -40.83687,-0.18092 -0.19426,-9.94908 -0.19427,-9.94908 -3.66158,1.70475 c -4.61414,2.14825 -5.41423,2.14319 -5.41423,-0.0342 l 0,-1.75266 -24.204,0 -24.20399,0 -0.73251,1.92664 c -1.90567,5.01231 -6.57677,7.4298 -13.664373,7.07189 -4.44125,-0.22428 -5.43931,-0.53462 -7.77569,-2.41789 -2.32244,-1.87202 -3.82936,-3.8724 -4.62611,-6.14092 -0.1182,-0.33654 -1.84776,0.21555 -3.84348,1.22686 -1.99572,1.0113 -3.7968,1.83874 -4.00241,1.83874 -0.20561,0 -0.37384,-0.7887 -0.37384,-1.75266 l 0,-1.75266 -18.57815,0 c -16.04653,0 -18.57815,-0.1433 -18.57815,-1.05159 0,-0.90829 2.53162,-1.05159 18.57815,-1.05159 l 18.57815,0 0,-1.75266 c 0,-2.15098 -0.0384,-2.15098 4.20637,0 1.90229,0.96396 3.59182,1.75266 3.75452,1.75266 0.1627,0 0.49194,-1.04547 0.73166,-2.32327 0.49627,-2.64534 3.96374,-6.31936 7.08135,-7.50315 3.1102,-1.18098 8.77235,-1.02729 11.567533,0.31399 4.97883,2.38912 5.44634,2.82112 6.63737,6.13326 l 1.21513,3.37917 12.72397,0.0614 c 6.99819,0.0338 17.8505,0.1461 24.11624,0.24957 l 11.39226,0.18814 0,-1.6517 c 0,-2.07461 0.83992,-2.06293 5.43323,0.0756 l 3.68058,1.71355 0,-10.83986 0,-10.83986 40.83687,0.18092 40.83688,0.18091 0.19352,10.6912 0.19353,10.6912 22.0652,0 22.0652,0 0,-1.75266 c 0,-2.15098 -0.0384,-2.15098 4.20637,0 1.90228,0.96396 3.62692,1.75266 3.83254,1.75266 0.2056,0 0.37383,-6.30956 0.37383,-14.02125 l 0,-14.02124 46.97117,0 46.97117,0 0,13.96786 0,13.96786 5.78376,0.28324 c 3.18107,0.15578 25.02792,0.21512 48.54856,0.13186 23.52063,-0.0832 56.88243,-0.18669 74.13732,-0.22985 30.56024,-0.0764 31.37254,-0.11372 31.37254,-1.43924 0,-2.17828 0.78115,-2.13723 5.58684,0.29359 l 4.53524,2.29403 -4.33999,2.19082 c -5.24267,2.64649 -5.78209,2.68737 -5.78209,0.43816 l 0,-1.75265 -24.98913,0 -24.98912,0 0.27668,43.641115 0.27668,43.64112 -50.82701,0.35053 -50.82701,0.35053 0.21934,1.57739 c 0.27998,2.01359 -0.51532,1.9839 -4.78258,-0.17847 l -3.46504,-1.75588 -0.19223,11.74601 -0.19223,11.746 -38.26039,0.1812 c -21.04321,0.0997 -38.47337,-0.0318 -38.73368,-0.29211 z m 75.24141,-25.12733 0,-23.48558 -37.15629,0 -37.1563,0 0,23.48558 0,23.48559 37.1563,0 37.15629,0 z m -36.84775,9.95659 c -1.64379,-1.41393 -2.00515,-2.35635 -2.26129,-5.89751 -0.28259,-3.90679 -0.14982,-4.38818 1.81759,-6.5901 1.16736,-1.3065 2.37601,-2.1219 2.6859,-1.81201 0.30988,0.30989 0.22545,0.78289 -0.18765,1.05111 -2.72411,1.76879 -3.2629,9.32007 -0.88105,12.34811 1.96082,2.49276 1.28266,3.0131 -1.1735,0.9004 z m 10.85757,-0.23626 c 1.11683,-1.41982 1.453,-2.85776 1.453,-6.21502 0,-3.35725 -0.33617,-4.79519 -1.453,-6.21501 -1.79894,-2.28697 -0.75691,-2.44689 1.34754,-0.20681 3.31926,3.53319 3.32485,9.30451 0.0124,12.83042 -2.1139,2.25014 -3.16456,2.10058 -1.35997,-0.19358 z m -26.58948,-2.35917 c 0,-0.38559 0.31547,-0.70107 0.70106,-0.70107 1.06871,0 0.89976,-9.6316 -0.17527,-9.99097 -0.48198,-0.16111 -0.0292,-0.45524 1.00627,-0.6536 1.03544,-0.19836 2.29735,-0.0976 2.80425,0.22379 0.70038,0.44413 0.71126,0.58702 0.0453,0.59518 -0.50394,0.006 -0.87633,0.90447 -0.87633,2.11392 0,1.93626 0.19474,2.10319 2.45372,2.10319 2.2434,0 2.45372,-0.17527 2.45372,-2.04477 0,-1.12462 -0.39435,-2.20389 -0.87633,-2.39837 -0.48198,-0.19448 0.38558,-0.35361 1.92792,-0.35361 1.54234,0 2.4099,0.15913 1.92792,0.35361 -1.07336,0.43312 -1.24107,10.05163 -0.17523,10.05163 0.38559,0 0.70106,0.31548 0.70106,0.70107 0,0.38558 -1.10417,0.70106 -2.45371,0.70106 -1.34955,0 -2.45372,-0.31548 -2.45372,-0.70106 0,-0.38559 0.31548,-0.70107 0.70106,-0.70107 0.38559,0 0.70106,-0.94643 0.70106,-2.10318 0,-1.93627 -0.19474,-2.10319 -2.45371,-2.10319 -2.25898,0 -2.45372,0.16692 -2.45372,2.10319 0,1.15675 0.31548,2.10318 0.70106,2.10318 0.38558,0 0.70106,0.31548 0.70106,0.70107 0,0.38558 -1.10417,0.70106 -2.45372,0.70106 -1.34954,0 -2.45371,-0.31548 -2.45371,-0.70106 z m 18.92868,-1.16025 c 0,-1.7588 0.0706,-1.79742 1.28206,-0.70107 1.40553,1.272 2.92431,1.53501 2.92431,0.50644 0,-0.35961 -0.60247,-0.84504 -1.33881,-1.07875 -1.99454,-0.63304 -3.04128,-2.22417 -2.52771,-3.84229 0.6544,-2.06183 5.26864,-2.09129 5.26864,-0.0336 0,0.77117 -0.31547,1.40212 -0.70106,1.40212 -0.38558,0 -0.70106,-0.31547 -0.70106,-0.70106 0,-0.38558 -0.47322,-0.70106 -1.05159,-0.70106 -1.63572,0 -1.23931,1.09153 0.72073,1.98459 3.69259,1.68246 2.68963,5.02603 -1.50763,5.02603 -2.09523,0 -2.36788,-0.21433 -2.36788,-1.8613 z m 33.65098,-93.782845 0,-27.04173 -45.60049,0 -45.60049,0 0.32429,8.23748 c 0.17836,4.53062 0.35025,16.51197 0.38199,26.62523 l 0.0577,18.387735 13.49545,0.19041 c 7.4225,0.10472 27.77083,0.29215 45.21851,0.4165 l 31.72307,0.2261 0,-27.041725 z m -45.16613,8.4929 c -3.51734,-4.61146 -3.10596,-15.59306 0.70252,-18.75381 1.68194,-1.3959 1.77448,-0.39535 0.23549,2.54621 -1.18843,2.27152 -1.39256,3.70184 -1.16036,8.13055 0.18443,3.51746 0.70159,6.01483 1.49691,7.22865 1.94746,2.9722 0.88485,3.67953 -1.27456,0.8484 z m 10.96774,1.79741 c 2.40893,-4.68127 2.7705,-6.36083 2.54167,-11.80643 -0.18667,-4.44232 -0.54616,-6.08607 -1.58102,-7.22919 -1.34179,-1.48216 -1.17263,-2.72406 0.2512,-1.84409 1.88158,1.16288 3.64832,6.23945 3.67322,10.55463 0.0265,4.59524 -1.97261,9.62982 -4.15656,10.46788 -0.54963,0.21091 -0.87746,0.14665 -0.72851,-0.1428 z m -24.53484,-5.47346 c -2.4969,-1.74889 -2.18783,-6.58383 0.599,-9.37066 1.87842,-1.87843 2.64831,-2.15711 5.95902,-2.15711 3.21934,0 3.80192,0.19695 3.80192,1.28528 0,2.05001 -0.77794,2.28042 -2.11684,0.62695 -1.0552,-1.30312 -1.54232,-1.42817 -3.24301,-0.83251 -4.85144,1.69919 -5.91198,9.78674 -1.28336,9.78674 1.75482,0 2.12156,-0.30633 2.30814,-1.92792 0.12571,-1.09257 -0.12004,-1.92792 -0.56717,-1.92792 -0.43396,0 -0.59403,-0.31548 -0.35573,-0.70106 0.23831,-0.38559 1.51884,-0.70106 2.84563,-0.70106 1.32679,0 2.41234,0.31547 2.41234,0.70106 0,0.38558 -0.30947,0.70106 -0.68771,0.70106 -0.37823,0 -0.89495,0.86757 -1.14826,1.92792 -0.2533,1.06036 -0.77116,2.32227 -1.15079,2.80425 -0.96571,1.22607 -5.50471,1.09371 -7.37318,-0.21502 z m 15.96844,-0.22708 c 0,-0.77169 0.31548,-1.59805 0.70106,-1.83635 0.38558,-0.23831 0.70106,0.0248 0.70106,0.58468 0,1.24982 1.89185,2.0771 2.49995,1.09318 0.24291,-0.39305 -0.0878,-1.29968 -0.73495,-2.01476 -0.64713,-0.71507 -1.07238,-2.03597 -0.94501,-2.93534 0.18023,-1.2725 0.73699,-1.68393 2.51006,-1.85488 1.90537,-0.18372 2.27845,0.0172 2.27845,1.22686 0,1.70118 -1.06848,1.92508 -1.6727,0.35051 -0.23132,-0.60282 -0.73532,-0.90151 -1.12001,-0.66376 -0.41551,0.2568 -0.0707,1.28268 0.84945,2.52723 1.99469,2.69796 1.08632,4.40226 -2.50938,4.70811 -2.16366,0.18404 -2.55798,0.001 -2.55798,-1.18548 z m -104.45827,-4.51014 0,-19.97539 -6.83536,-0.24937 c -3.75944,-0.13716 -21.26847,-0.35459 -38.90895,-0.48318 l -32.07359,-0.23381 0,20.03399 0,20.03398 19.10394,0.18653 c 10.50717,0.10259 28.0162,0.29365 38.90895,0.42458 l 19.80501,0.23806 z m -48.37329,7.93175 c 0,-0.38558 0.43947,-0.70106 0.97659,-0.70106 1.49946,0 1.92084,-1.91791 1.76846,-8.04919 -0.15869,-6.38564 -0.39576,-7.37418 -1.76846,-7.37418 -0.53712,0 -0.97659,-0.31547 -0.97659,-0.70106 0,-0.38558 1.73513,-0.70106 3.85584,-0.70106 3.68731,0 5.03905,0.79807 2.80425,1.65564 -0.70565,0.27079 -1.05159,1.3801 -1.05159,3.37207 l 0,2.96853 2.80584,-2.73983 c 1.92506,-1.87977 2.68047,-3.13482 2.40647,-3.99812 -0.34435,-1.08498 0.0416,-1.25829 2.80266,-1.25829 3.20974,0 4.30187,0.95856 1.94456,1.70674 -0.6916,0.21951 -2.59302,1.75994 -4.22537,3.42318 l -2.96792,3.02409 4.51523,4.33574 c 2.48338,2.38466 5.03437,4.33574 5.66887,4.33574 0.63451,0 0.95867,0.31548 0.72037,0.70106 -0.54313,0.87881 -8.76328,0.93361 -8.76328,0.0584 0,-0.35344 0.32551,-0.75114 0.72335,-0.88376 0.39784,-0.13261 -0.70633,-1.64423 -2.45372,-3.35916 l -3.17706,-3.11803 0,2.97221 c 0,1.99525 0.34566,3.10487 1.05159,3.37576 2.2348,0.85757 0.88306,1.65565 -2.80425,1.65565 -2.12071,0 -3.85584,-0.31548 -3.85584,-0.70107 z m -97.21713,-0.2552 c 3.54073,-1.47941 6.07904,-4.93606 6.07904,-8.27838 0,-7.40934 -9.380103,-11.92962 -17.296633,-8.33526 -3.42875,1.55676 -5.13781,3.8669 -5.58784,7.55306 -0.85213,6.97979 9.03173,12.30864 16.805433,9.06058 z M 73.287187,120.62717 c 0,-1.23217 0.46737,-1.40213 3.85584,-1.40213 3.38847,0 3.85584,0.16996 3.85584,1.40213 0,1.23217 -0.46737,1.40212 -3.85584,1.40212 -3.38847,0 -3.85584,-0.16995 -3.85584,-1.40212 z m -18.92868,-11.17669 c 0,-2.74955 -0.0155,-2.76505 -2.97347,-2.97951 -2.16902,-0.15725 -3.03642,-0.54749 -3.20618,-1.44243 -0.19415,-1.02352 0.29868,-1.22686 2.97346,-1.22686 l 3.20619,0 0,-3.15478 c 0,-2.336875 0.27263,-3.154775 1.05159,-3.154775 0.77896,0 1.0516,0.8179 1.0516,3.154775 l 0,3.15478 2.6874,0 c 3.01922,0 3.69677,0.39194 3.14831,1.82119 -0.23423,0.61042 -1.41177,0.98305 -3.10647,0.98305 -2.71674,0 -2.72924,0.0128 -2.72924,2.80425 0,2.0253 -0.29211,2.80425 -1.0516,2.80425 -0.75692,0 -1.05159,-0.77447 -1.05159,-2.76394 z M 483.18922,66.623305 c -3.52673,-2.77412 -3.91436,-8.8546 -0.78007,-12.23655 2.15329,-2.32344 3.64723,-2.34771 2.13165,-0.0346 -1.51657,2.31458 -1.52214,9.32141 -0.009,11.48154 1.52246,2.17361 0.88996,2.54566 -1.34246,0.78964 z m 9.33316,0.97827 c 0,-0.27239 0.52333,-1.07353 1.16296,-1.78031 1.67561,-1.85153 1.67456,-8.8172 -10e-4,-11.37552 -1.22175,-1.86463 -1.22243,-1.9362 -0.0161,-1.70388 0.69259,0.13338 2.00803,1.3445 2.92319,2.69137 2.74131,4.03443 1.3943,9.74008 -2.83365,12.00281 -0.67943,0.36344 -1.23504,0.43792 -1.23504,0.16553 z m -357.87765,-1.92946 c -3.19776,-3.19775 -2.89311,-10.28673 0.54557,-12.69527 2.15225,-1.5075 2.78641,-1.30138 1.61104,0.52362 -0.55874,0.86757 -1.22266,2.7102 -1.47536,4.09475 -0.50003,2.73952 0.6992,8.3491 1.78489,8.3491 0.37072,0 0.67404,0.31549 0.67404,0.70107 0,1.20367 -1.39588,0.77104 -3.14018,-0.97327 z m 10.1508,1.29913 c 0,-0.20636 0.51097,-1.15504 1.1355,-2.10818 1.53605,-2.34431 1.06318,-9.49569 -0.76119,-11.51159 -1.09827,-1.21358 -1.12756,-1.4284 -0.19475,-1.4284 0.60386,0 1.91466,0.97064 2.9129,2.15698 2.55529,3.03678 2.55529,8.07263 0,11.10941 -1.63216,1.93972 -3.09246,2.7811 -3.09246,1.78178 z m -99.210133,-2.43991 c -0.77369,-0.85492 -1.39999,-2.87516 -1.58574,-5.11509 -0.26876,-3.2408 -0.0715,-3.98197 1.58293,-5.94817 2.37779,-2.82585 4.71799,-3.19666 2.51724,-0.39886 -1.77299,2.25399 -1.96773,7.74299 -0.38341,10.80673 0.87858,1.69899 0.89799,2.06837 0.10866,2.06837 -0.52852,0 -1.53637,-0.63584 -2.23968,-1.41298 z m 11.98793,-0.8063 c 1.44164,-2.78784 1.02377,-8.42757 -0.77142,-10.41124 -1.56263,-1.72668 -0.98374,-2.48552 1.06122,-1.39109 1.76021,0.94204 3.50718,4.68904 3.50338,7.51427 -0.003,2.43685 -2.41837,6.50734 -3.86092,6.50734 -0.95823,0 -0.9506,-0.25004 0.0677,-2.21928 z m 65.138743,0.1161 c -1.77365,-0.22171 -2.48218,-0.55897 -1.92792,-0.9177 0.5505,-0.35629 0.87633,-2.23318 0.87633,-5.04787 0,-3.52773 -0.26093,-4.63267 -1.22686,-5.19527 -0.91077,-0.53048 0.17295,-0.72007 4.20637,-0.7359 5.41801,-0.0213 5.43324,-0.0161 5.43324,1.83999 0,1.79293 -0.0496,1.81643 -1.34997,0.63961 -1.77702,-1.60818 -3.88592,-1.16471 -3.98754,0.83851 -0.0899,1.7712 0.96478,2.11619 1.57867,0.51641 0.79808,-2.07976 1.65565,-0.99039 1.65565,2.10319 0,3.42667 -0.3756,3.81462 -1.86651,1.92792 -0.87871,-1.11198 -0.95159,-1.03499 -0.77835,0.82226 0.25352,2.7178 1.5107,3.00462 3.67654,0.83878 l 1.77257,-1.77257 0,1.99768 c 0,1.79681 -0.26435,2.02271 -2.62899,2.24659 -1.44594,0.13689 -3.89089,0.0912 -5.43323,-0.10163 z m 17.00076,0.2178 c -0.67477,-0.17634 -1.22686,-0.97733 -1.22686,-1.77999 0,-1.41497 0.0427,-1.42076 1.40213,-0.19047 0.77117,0.6979 1.40212,0.92242 1.40212,0.49894 0,-0.42348 -0.57139,-1.1822 -1.26977,-1.68604 -1.95264,-1.40875 -2.37071,-2.50835 -1.54223,-4.05637 0.49901,-0.93243 1.46857,-1.41662 2.83666,-1.41662 1.80527,0 2.07572,0.25345 2.05721,1.92792 -0.0182,1.64822 -0.12499,1.74993 -0.7359,0.70107 -0.39302,-0.67478 -1.0734,-1.22686 -1.51197,-1.22686 -0.43856,0 0.0503,0.88482 1.08643,1.96628 2.22372,2.32105 2.40199,4.01663 0.52778,5.01967 -0.74581,0.39915 -1.45564,0.68913 -1.57739,0.64441 -0.12174,-0.0447 -0.77344,-0.2256 -1.44821,-0.40194 z m 329.2921,-1.23753 c -1.81746,-1.81747 -2.15613,-4.0535 -1.05329,-6.95422 1.0795,-2.83929 3.33682,-3.61434 9.32264,-3.20093 1.52464,0.1053 1.92792,0.48144 1.92792,1.79817 0,2.03341 -0.70575,2.1144 -2.29105,0.2629 -0.6603,-0.77117 -1.62795,-1.40212 -2.15033,-1.40212 -1.65989,0 -3.55073,2.78367 -3.55073,5.22732 0,4.24795 2.28329,5.40472 6.94052,3.51623 1.38323,-0.5609 1.38412,-0.54806 0.0666,0.95244 -1.95672,2.22848 -6.89103,2.12147 -9.21228,-0.19979 z m 17.20789,0.36099 c 0,-1.51365 1.01147,-1.94266 1.75266,-0.74339 0.2383,0.38559 0.80901,0.68972 1.26823,0.67585 0.45923,-0.0139 -0.0604,-0.75772 -1.15479,-1.65301 -2.94407,-2.40855 -2.40885,-4.90793 1.11342,-5.19945 2.25768,-0.18686 2.62898,-0.0136 2.62898,1.22686 0,1.51364 -1.01147,1.94265 -1.75266,0.74338 -0.2383,-0.38558 -0.77268,-0.70106 -1.18751,-0.70106 -0.41483,0 0.0944,0.66756 1.13169,1.48346 1.3543,1.06529 1.82559,2.00399 1.67193,3.33005 -0.18324,1.58128 -0.59169,1.87784 -2.84297,2.06416 -2.25768,0.18686 -2.62898,0.0136 -2.62898,-1.22685 z m -455.129583,-0.8836 c 1.15631,-1.15631 1.12663,-10.14373 -0.035,-10.61248 -0.48198,-0.19448 1.11615,-0.37851 3.5514,-0.40895 2.43525,-0.0304 5.03794,0.27123 5.78376,0.67038 1.61774,0.86578 1.78406,3.65354 0.30614,5.13145 -0.93248,0.93249 -0.85408,1.2826 0.70107,3.13079 2.22692,2.64655 2.19836,2.93009 -0.29505,2.93009 -1.60632,0 -2.39729,-0.56499 -3.68058,-2.62899 -1.50191,-2.41562 -1.65316,-2.49783 -1.86365,-1.013 -0.126,0.88879 0.14924,2.07183 0.61164,2.62898 0.7133,0.85948 0.32834,1.01301 -2.54012,1.01301 -2.62953,0 -3.19388,-0.18695 -2.53956,-0.84128 z m 6.80031,-7.57147 c 0,-1.09353 -0.45291,-1.82068 -1.22686,-1.96972 -0.95857,-0.18461 -1.22686,0.24614 -1.22686,1.96972 0,1.72358 0.26829,2.15433 1.22686,1.96972 0.77395,-0.14904 1.22686,-0.8762 1.22686,-1.96972 z m 11.56752,7.05294 c 0,-1.74765 0.53114,-1.81554 2.22325,-0.28419 0.70514,0.63813 1.28207,0.83216 1.28207,0.43116 0,-0.401 -0.7887,-1.24586 -1.75266,-1.87748 -3.05308,-2.00045 -1.87166,-5.32243 1.89287,-5.32243 1.4956,0 1.96297,0.33384 1.96297,1.40212 0,1.4786 -1.01996,1.88659 -1.75265,0.70107 -0.23831,-0.38559 -0.7971,-0.70107 -1.24176,-0.70107 -0.44465,0 0.28379,0.92229 1.61877,2.04953 2.0306,1.71461 2.30107,2.25876 1.65517,3.33004 -0.46878,0.77751 -1.77688,1.366 -3.33004,1.49811 -2.186,0.18594 -2.55799,0.008 -2.55799,-1.22686 z M 190.25834,44.892635 c 0.14523,-2.09633 -0.10276,-3.94418 -0.61164,-4.55734 -0.47076,-0.56724 -0.5807,-1.0666 -0.24429,-1.10971 6.05636,-0.77598 7.27172,-0.30327 7.27172,2.82825 0,2.20775 -1.14932,3.55968 -3.02622,3.55968 -0.99852,0 -1.2495,0.36017 -0.97702,1.40213 0.28293,1.08192 0.0215,1.40222 -1.14509,1.40256 -1.38034,3.9e-4 -1.49052,-0.30608 -1.26746,-3.52557 z m 4.19669,-2.87884 c -0.12903,-0.91203 -0.55009,-1.59604 -0.93568,-1.52001 -0.89907,0.17728 -1.29526,2.07141 -0.73737,3.52526 0.63351,1.65089 1.96463,0.0555 1.67305,-2.00525 z m 21.14778,2.89866 c -1.6874,-1.6874 -1.75312,-2.69221 -0.31078,-4.75145 1.24137,-1.77228 3.25386,-2.0287 4.46536,-0.56893 0.63012,0.75925 0.61896,1.11401 -0.048,1.52625 -0.48606,0.3004 -0.99021,0.17343 -1.14406,-0.28812 -0.52808,-1.58418 -2.26142,-0.85641 -2.26142,0.94947 0,2.00114 1.93117,3.14332 2.83688,1.67785 0.32571,-0.527 0.81773,-0.73264 1.09338,-0.45699 0.54191,0.54191 -1.66372,3.31404 -2.6368,3.31404 -0.32582,0 -1.22336,-0.63095 -1.99453,-1.40212 z m 6.37096,0.83837 c -1.39217,-0.46406 -0.78869,-2.89205 1.01208,-4.07195 0.97599,-0.6395 1.61457,-1.32268 1.41906,-1.51819 -0.19551,-0.19551 -0.84393,0.0499 -1.44094,0.5454 -1.28148,1.06353 -2.09876,0.511 -1.51074,-1.02136 0.49821,-1.29832 3.51362,-1.43657 4.48239,-0.2055 0.85179,1.08239 1.67682,6.11304 1.01538,6.19125 -2.17327,0.25695 -4.34238,0.29197 -4.97723,0.0804 z m 2.74285,-2.67687 c 0,-0.93156 -0.19033,-0.97947 -1.05159,-0.26469 -0.57838,0.48001 -1.05159,0.99186 -1.05159,1.13744 0,0.14558 0.47321,0.26469 1.05159,0.26469 0.57838,0 1.05159,-0.51185 1.05159,-1.13744 z m 3.90655,2.13958 c -2.22393,-2.22392 -0.47639,-6.61064 2.63348,-6.61064 1.32748,0 1.56434,-1.07668 0.39575,-1.79891 -0.54089,-0.33429 -0.48781,-0.6621 0.17526,-1.08224 1.76089,-1.11575 2.00277,-0.64078 2.00277,3.93274 0,4.66672 1.13777,6.36718 1.53297,2.29111 0.17136,-1.76736 0.65993,-2.41969 2.22099,-2.96539 1.72369,-0.60255 2.18786,-0.4692 3.34627,0.96138 2.20537,2.72352 -0.12094,7.009 -3.24439,5.97676 -1.73687,-0.57401 -4.05001,-0.58405 -6.26859,-0.0272 -1.07947,0.27093 -2.09134,0.0256 -2.79451,-0.67759 z m 11.19092,-1.04199 c 0.73731,-1.19299 -0.30616,-4.16653 -1.46212,-4.16653 -1.46482,0 -1.98083,1.70294 -1.04555,3.45053 0.8544,1.59644 1.79716,1.86563 2.50767,0.716 z m -7.38578,-0.95441 c 0,-1.76194 -0.82514,-3.21212 -1.82767,-3.21212 -0.99156,0 -1.38192,2.86629 -0.50921,3.739 0.83342,0.83342 2.33688,0.49445 2.33688,-0.52688 z m -64.33747,1.87058 c 0.1524,-0.28918 1.17678,-2.49753 2.27638,-4.90743 1.09962,-2.4099 2.23339,-4.38164 2.5195,-4.38164 0.28611,0 1.4798,2.05061 2.65263,4.5569 2.48916,5.3192 3.81375,5.91618 3.49996,1.57739 l -0.21548,-2.97951 4.72357,-0.10296 c 5.14891,-0.11223 4.82374,-0.3917 5.62582,4.83513 l 0.29586,1.92792 -7.53657,0 c -6.74741,0 -7.52638,-0.12847 -7.43921,-1.22686 0.0728,-0.91744 -0.43306,-1.22686 -2.00581,-1.22686 -1.57276,0 -2.07863,0.30942 -2.00582,1.22686 0.0624,0.78664 -0.39875,1.22686 -1.28528,1.22686 -0.76046,0 -1.25795,-0.23661 -1.10555,-0.5258 z m 14.91258,-2.62898 c 0,-1.09249 -0.39435,-2.11779 -0.87633,-2.27845 -0.59483,-0.19828 -0.87632,0.53359 -0.87632,2.27845 0,1.74487 0.28149,2.47673 0.87632,2.27845 0.48198,-0.16066 0.87633,-1.18596 0.87633,-2.27845 z m 3.85584,-0.0584 c 0,-1.69795 -0.28402,-2.41757 -0.87632,-2.22036 -1.64724,0.54846 -1.51174,4.7325 0.15326,4.7325 0.39769,0 0.72306,-1.13046 0.72306,-2.51214 z m -13.32018,-1.65286 c 0,-1.17527 -1.24336,-1.46629 -1.65719,-0.38788 -0.24418,0.63633 0.002,1.04757 0.6276,1.04757 0.56627,0 1.02959,-0.29686 1.02959,-0.65969 z m 24.29185,-0.21629 c 0.0813,-3.92621 0.34755,-5.13215 1.17006,-5.29878 0.86203,-0.17464 1.10905,0.79375 1.29692,5.08433 0.215,4.91039 0.12898,5.29997 -1.17006,5.29878 -1.28277,-0.001 -1.39317,-0.43399 -1.29692,-5.08433 z m 4.12534,1.75669 c 0.0181,-2.49058 0.30825,-3.37925 1.15664,-3.54263 0.89778,-0.1729 1.18335,0.51629 1.37796,3.32554 0.21879,3.15833 0.093,3.54352 -1.15664,3.54263 -1.20828,-8.4e-4 -1.39878,-0.46064 -1.37796,-3.32554 z m 4.24368,-0.36355 c 0.0884,-5.30662 1.15348,-6.95936 4.31182,-6.69104 1.39127,0.1182 2.67449,0.65721 2.85249,1.19818 0.25323,0.76962 -0.23015,0.89347 -2.22426,0.56987 -1.87866,-0.30487 -2.54781,-0.16419 -2.54781,0.53564 0,0.522 0.39435,1.13312 0.87633,1.35805 0.70106,0.32716 0.70106,0.49074 0,0.8179 -0.48198,0.22493 -0.87633,1.46055 -0.87633,2.74583 0,1.28528 0.39435,2.496 0.87633,2.69048 0.48198,0.19448 -0.0701,0.37856 -1.22686,0.40905 -2.08494,0.055 -2.10265,0.0234 -2.04171,-3.63396 z m 4.87013,0.36355 c 0.0181,-2.49058 0.30825,-3.37925 1.15664,-3.54263 0.89778,-0.1729 1.18335,0.51629 1.37795,3.32554 0.2188,3.15833 0.093,3.54352 -1.15664,3.54263 -1.20827,-8.4e-4 -1.39878,-0.46064 -1.37795,-3.32554 z m 31.52363,0.34615 c 0,-3.22763 0.56723,-4.00381 2.93814,-4.02038 2.12102,-0.0148 2.81007,1.39446 0.92307,1.88792 -1.27623,0.33374 -1.49106,0.80273 -1.2629,2.75706 0.233,1.99582 0.0559,2.35491 -1.16169,2.35491 -1.22277,0 -1.43662,-0.44353 -1.43662,-2.97951 z m 104.2773,-3.15668 c -1.7437,-0.58123 -0.95771,-3.59764 1.23256,-4.73027 2.23848,-1.15756 2.79397,-2.45372 1.05159,-2.45372 -0.57837,0 -1.05159,0.49951 -1.05159,1.11001 0,0.61051 -0.39435,0.97857 -0.87633,0.81791 -1.53603,-0.51201 -0.94249,-2.22142 1.00971,-2.90797 2.6341,-0.92636 4.07299,0.44087 4.07299,3.87014 0,1.94899 0.29765,2.71841 1.0516,2.71841 1.31583,0 1.47515,-4.63932 0.17526,-5.10357 -1.47134,-0.52548 -0.16389,-1.23783 2.70954,-1.47627 3.96119,-0.3287 4.47635,0.058 4.47635,3.35985 0,1.61676 0.37857,3.31814 0.84127,3.78084 0.65433,0.65432 0.38057,0.84127 -1.23191,0.84127 -2.0269,0 -2.06758,-0.0704 -1.82227,-3.15478 0.20688,-2.60115 0.0416,-3.15478 -0.94187,-3.15478 -0.98346,0 -1.14875,0.55363 -0.94187,3.15478 0.24513,3.08213 0.20236,3.15647 -1.85733,3.22793 -1.15953,0.0402 -3.21498,0.14453 -4.56765,0.23179 -1.35268,0.0872 -2.8512,0.028 -3.33005,-0.13157 z m 3.21141,-3.20852 c 0.15774,-0.81332 -0.10748,-1.03826 -0.87633,-0.74323 -1.29601,0.49733 -1.51521,2.63051 -0.22619,2.20132 0.48198,-0.16048 0.97811,-0.81662 1.10252,-1.45809 z m 13.535,2.50316 c -1.19246,-2.22813 -1.14898,-6.90391 0.0806,-8.67103 0.91793,-1.3192 1.16508,-1.41676 1.19424,-0.47142 0.0203,0.65561 0.58886,1.51358 1.26363,1.9066 1.16844,0.68055 1.16844,0.7156 0,0.7359 -0.96041,0.0167 -1.22686,0.63035 -1.22686,2.82557 0,2.02529 0.29211,2.80425 1.05159,2.80425 1.38831,0 1.34942,1.13782 -0.0573,1.67765 -1.53433,0.58878 -1.56422,0.57831 -2.30589,-0.80752 z m 4.98652,0.70536 c -0.47885,-0.15962 -0.87063,-1.08002 -0.87063,-2.04534 0,-1.30754 0.53798,-1.9582 2.10957,-2.55141 2.07911,-0.78477 2.45339,-1.88416 0.82613,-2.42658 -0.45789,-0.15263 -0.83251,0.222 -0.83251,0.83251 0,0.61051 -0.47322,1.11002 -1.0516,1.11002 -1.56818,0 -1.26984,-1.93705 0.43921,-2.85171 1.08217,-0.57916 1.94692,-0.59004 3.15478,-0.0397 1.34973,0.61498 1.66398,1.2906 1.66398,3.57744 0,1.7254 0.32641,2.81928 0.84127,2.81928 0.64738,0 0.64446,0.19682 -0.0127,0.85397 -0.84721,0.8472 -4.59583,1.27874 -6.26752,0.72152 z m 3.21141,-3.20852 c 0.15774,-0.81332 -0.10749,-1.03826 -0.87633,-0.74323 -1.29602,0.49733 -1.51521,2.63051 -0.2262,2.20132 0.48199,-0.16048 0.97812,-0.81662 1.10253,-1.45809 z m -40.71254,2.57085 c 1.16167,-0.46875 1.19136,-9.45617 0.0351,-10.61248 -0.65432,-0.65433 -0.0988,-0.84128 2.49981,-0.84128 4.18664,0 6.05315,0.96496 6.05315,3.12937 0,2.15569 -1.73653,3.88126 -3.90592,3.88126 -1.30922,0 -1.70257,0.37252 -1.70257,1.61244 0,0.88684 0.37857,1.99102 0.84127,2.45372 0.65432,0.65432 0.2259,0.82897 -1.92792,0.78592 -1.52306,-0.0304 -2.37485,-0.21447 -1.89287,-0.40895 z m 5.43323,-7.94844 c 0,-1.09353 -0.45291,-1.82068 -1.22686,-1.96973 -0.95856,-0.1846 -1.22685,0.24614 -1.22685,1.96973 0,1.72358 0.26829,2.15432 1.22685,1.96972 0.77395,-0.14905 1.22686,-0.8762 1.22686,-1.96972 z m 5.144,3.41088 c 0.16911,-3.57802 -0.025,-5.16667 -0.68076,-5.57196 -1.08017,-0.66758 -0.81649,-0.99803 1.32053,-1.65492 1.54996,-0.47643 1.57739,-0.38144 1.57739,5.46299 0,4.10231 0.27191,6.05756 0.87632,6.30145 0.48198,0.19448 -0.0701,0.37922 -1.22686,0.41053 l -2.10318,0.0569 z m -139.39741,1.78866 c 0,-1.23802 1.50922,-1.02242 1.94253,0.2775 0.15262,0.45788 -0.222,0.83251 -0.83252,0.83251 -0.6105,0 -1.11001,-0.4995 -1.11001,-1.11001 z"
       id="path3533"
       inkscape:connector-curvature="0"
       sodipodi:nodetypes="scssssssssssssssssssssssssssssssssssssssssssssssssssssssssssssssssssscscssssscssscssssscccscscsscsscccccccccccsscccccccccsscccssssssscssscssssssscsscsscccccccccsssscccccssssscsscccccccsscccscccccccccccssscssscssssccssssscssssscssssssssssssssssssssssssccccsscsscccsssssssssssssssssssssssssssssssssssssscsssccsscccssccsssssssscssssscsssscscsssssssssssssssssscssscssssssssssssscsscssssssssssssssssssssssssssssssssssssssssscssssssssssssssssssssssssssssssssssssssssssssssssssssssssssssssssssssssssssssssssssscsssssssscsssssssssssssssssssssssssssssssssscsscssscsssssssssssssssssscsssscssssssssssssssscsssssssssssssssssssssssssssssssscssssssssssssssssssssssssssssssssssssscsssscsssss" />
  </g>
</svg>
