<?xml version="1.0" encoding="UTF-8" standalone="no"?>
<!-- Created with Inkscape (http://www.inkscape.org/) -->

<svg
   xmlns:dc="http://purl.org/dc/elements/1.1/"
   xmlns:cc="http://creativecommons.org/ns#"
   xmlns:rdf="http://www.w3.org/1999/02/22-rdf-syntax-ns#"
   xmlns:svg="http://www.w3.org/2000/svg"
   xmlns="http://www.w3.org/2000/svg"
   xmlns:sodipodi="http://sodipodi.sourceforge.net/DTD/sodipodi-0.dtd"
   xmlns:inkscape="http://www.inkscape.org/namespaces/inkscape"
   id="svg2"
   version="1.1"
   inkscape:version="0.48.4 r9939"
   width="435.99362"
   height="203.07443"
   sodipodi:docname="sistema_01.svg">
  <metadata
     id="metadata8">
    <rdf:RDF>
      <cc:Work
         rdf:about="">
        <dc:format>image/svg+xml</dc:format>
        <dc:type
           rdf:resource="http://purl.org/dc/dcmitype/StillImage" />
        <dc:title></dc:title>
      </cc:Work>
    </rdf:RDF>
  </metadata>
  <defs
     id="defs6" />
  <sodipodi:namedview
     pagecolor="#ffffff"
     bordercolor="#666666"
     borderopacity="1"
     objecttolerance="10"
     gridtolerance="10"
     guidetolerance="10"
     inkscape:pageopacity="0"
     inkscape:pageshadow="2"
     inkscape:window-width="785"
     inkscape:window-height="480"
     id="namedview4"
     showgrid="false"
     inkscape:zoom="0.96230943"
     inkscape:cx="217.99682"
     inkscape:cy="101.53721"
     inkscape:window-x="0"
     inkscape:window-y="27"
     inkscape:window-maximized="0"
     inkscape:current-layer="svg2"
     fit-margin-top="15"
     fit-margin-left="15"
     fit-margin-right="15"
     fit-margin-bottom="15" />
  <path
     style="fill:#000000"
     d="m 200.9827,188.04636 c -8.6321,0.527 -13.02483,-6.445 -10.82647,-14.15265 2.36657,-12.80417 -14.58379,-7.60018 -21.61845,-10.24973 -21.27185,0.81243 -42.87665,-0.72193 -64.30466,-0.12864 -8.48456,-3.07268 -27.07263,1.41231 -25.15265,-10.79136 -1.32155,-13.41265 4.50933,-28.0276 3.6929,-41.12669 C 89.95249,98.83395 68.58978,99.35034 79.6552,88.88255 89.13224,82.61145 67.70203,83.04545 69.48978,72.56488 62.8653,71.83653 58.47014,74.02969 57.1852,66.28956 43.35685,65.80972 27.67602,67.77875 15,65.66188 c 12.39005,-6.586775 28.9941,0.40711 42.53023,-4.077961 1.39932,-10.9207 10.54398,2.607261 13.3035,-3.305645 7.89083,-9.460185 22.29451,-13.829298 32.61335,-5.094292 2.7289,16.003988 12.9691,15.486908 26.97562,12.930818 18.24736,6.89832 14.69836,-7.007838 18.06957,-16.096169 21.43833,1.072981 43.04301,-1.842498 64.41082,-0.224686 8.21088,3.521959 -1.35882,17.230425 4.6695,20.082735 13.04435,1.16592 27.66279,0.65185 41.39952,0.52732 0.7497,-8.345677 -3.69453,-22.104471 10.36546,-20.270023 18.65654,1.602202 37.5816,0.06034 56.12145,0.51436 9.24161,4.532717 0.0616,18.718763 5.44803,24.179073 23.02944,1.05216 46.37087,-4.42539 69.68052,-3.52256 5.10538,0.009 7.42798,-7.43057 13.9244,-4.70045 7.98658,-0.30348 8.96189,12.21561 0.85253,13.03713 -11.74579,0.60809 -19.69184,-9.84203 -33.50669,-4.38435 -16.73777,0.10769 -34.54829,3.66713 -51.50551,4.17676 0.48874,11.16299 1.01717,26.62289 -15.76036,22.88953 -3.96865,0.39084 -18.54853,-3.79135 -15.01808,6.75673 -0.3976,16.23779 4.31088,31.64552 2.31371,47.83291 -5.52048,8.64616 -24.01875,-0.45497 -19.27177,14.97923 6.65861,17.54067 -10.38905,15.92561 -21.27811,14.26818 -20.12948,-1.30601 -40.09125,0.26088 -60.35499,1.88584 z m 2.73,-3.37797 c 24.32409,-2.88555 48.92273,-2.31794 73.25256,-2.51965 1.24152,-6.6923 1.58977,-16.30278 -0.69909,-21.76078 1.12133,-9.48201 3.48005,-21.49791 -4.10823,-28.73131 -24.91216,-1.27263 -49.80759,3.74017 -74.47529,4.26712 -7.92355,0.0741 -2.65484,11.17562 -3.39018,16.38 1.58216,10.49448 0.43857,19.99112 2.46851,30.70929 -1.11432,2.87328 5.74335,1.19282 6.95172,1.65533 z m 22.98946,-11.16228 c -5.03491,-5.0846 -1.6019,-15.84601 -2.85966,-23.14103 5.64806,-13.93392 3.04944,18.81814 18.9489,7.63912 -0.0999,-13.71806 8.7857,-10.97689 7.62825,2.80842 2.14599,7.21436 -4.09661,18.57664 -5.86096,6.47321 -1.80243,-12.55754 -14.6433,12.99738 -16.27882,5.592 -0.43537,0.33749 -0.97709,0.81079 -1.57771,0.62828 z M 185.0719,161.70148 c 9.98187,3.16386 -2.62767,-25.26514 3.23696,-13.72171 -0.0545,-6.10075 -5.30456,-17.33981 5.63892,-16.50471 26.66851,1.5089 53.43625,-4.19627 80.38093,-3.34572 12.08186,0.2583 7.0651,15.00344 8.68469,22.28467 -3.72169,9.44256 8.28275,8.69977 13.34809,5.06112 2.03077,-6.97672 0.20139,-16.26244 -0.52094,-24.32748 -0.47642,-9.41421 -1.21212,-18.80584 -2.99173,-28.30431 -8.74881,-1.40373 -21.1911,0.89513 -31.17114,-0.96586 -4.77316,-7.11642 0.3899,-17.8833 -2.97045,-26.21077 -14.46774,-1.58265 -28.99817,-1.9096 -43.57452,-1.35659 -3.62082,7.33003 1.833,20.14624 -6.60917,24.41259 -19.88059,5.92294 -40.99118,0.16886 -61.28022,3.9696 -6.98918,-3.42184 -0.81424,-19.78747 -1.66257,-28.73735 -5.94435,-9.00557 -24.62519,-2.31216 -35.04685,-3.15441 -3.99962,7.04449 -12.43866,12.88402 -19.45554,14.25093 1.19555,6.89719 7.19799,15.46368 -2.61014,15.58233 1.52952,18.04647 -5.40636,35.86956 -4.40615,53.62416 6.26917,6.93943 21.72807,5.54648 30.28324,6.02608 23.26159,1.71671 47.77252,-0.42301 70.72659,1.41743 z m 108.99464,-5.12702 c 0.43134,-1.09063 -0.0546,0.55089 0,0 z M 80.0227,136.13398 c -0.25397,-0.7678 -0.51792,0.74809 0,0 z m 72.24,-37.20136 c 17.99924,-3.03144 38.51912,2.74538 55.04906,-4.27364 1.12717,-13.45797 4.3696,-26.78105 3.85589,-40.512211 -11.08344,-1.963738 -24.55494,-1.563002 -36.46662,-1.184806 -6.89371,2.411178 -18.173,-2.283743 -23.41032,2.203572 0.64913,14.508525 -2.29372,29.940925 -1.42199,43.893575 l 2.39402,-0.12649 z m 40.6875,-11.2532 c -3.9411,-1.56732 -15.27171,-1.36766 -10.43808,-9.39062 8.73252,-7.92727 9.01127,-2.85032 4.19753,3.86392 10.2455,7.08086 2.18364,-3.22026 7.69824,-6.14893 4.04754,0.40225 4.93214,15.35973 5.62388,1.17269 5.28862,-11.98151 8.00178,16.24918 -3.52075,9.6075 l -0.6975,0.38958 z m -28.80159,-1.18085 c -5.23887,-3.01747 -1.50393,-11.41134 -2.66668,-16.6561 3.75301,-15.481312 28.7647,1.30126 16.61213,12.11181 -3.43552,3.49924 -9.18007,5.46787 -13.94545,4.54429 z m 6.13087,-4.81636 c 9.29731,-1.64407 5.81948,-16.27652 -3.05437,-13.86914 -0.28982,3.18777 -4.41372,17.39818 3.05437,13.86914 z m 4.91167,-3.9676 c -0.4043,0.0911 0.30088,0.92051 0,0 z M 151.67371,55.481991 c 0.15296,-1.31404 0.63907,1.571066 0,0 z M 279.42667,98.95919 c 14.84805,-0.62681 29.90673,0.13861 44.27374,-2.32207 3.3614,-6.06992 -2.91046,-17.05232 -0.0252,-24.86812 -0.43148,-5.49389 1.5918,-11.320075 0.41349,-15.855004 -14.91931,-4.726512 -31.69271,0.461454 -47.22711,-2.2036 -10.29182,-1.833314 -14.37632,0.944573 -12.59853,11.570004 0.19068,10.9978 -0.52591,23.10733 3.35944,32.96674 3.90138,0.23533 7.87227,0.88964 11.80424,0.71205 z m 35.83055,-6.17609 c 0.35798,-9.55297 2.12863,-3.59519 -7.16184,-3.12857 -2.68989,1.88284 -13.73393,-0.53018 -11.36758,-4.04047 -6.8047,6.18775 -22.71549,7.25817 -22.19854,-5.41523 -0.86793,-11.1079 13.81373,-18.529084 22.30704,-12.15647 -1.73446,7.08923 -9.07984,-1.77014 -12.86852,3.41162 -5.2794,2.58589 -5.71907,15.10137 1.52089,14.53968 3.70489,-0.34403 8.4098,-4.5255 0.75964,-4.24914 -6.09616,-6.64665 12.07857,-6.71884 10.90299,0.97793 0.60956,2.17545 7.13552,-7.03737 10.24597,-3.39076 -1.11734,3.03868 -7.53977,7.74417 0.88032,6.85796 -2.35767,-3.93886 7.94073,-12.10545 12.42451,-5.90531 3.7058,4.42202 0.96572,8.98621 -3.69432,12.54784 l -1.75056,-0.0491 z m -5.38951,-6.73412 c -0.52066,-1.10648 -0.52066,1.10649 0,0 z m 6.00747,-1.04391 c -0.86156,-1.13232 0.22176,1.0875 0,0 z m -19.86747,2.60652 c 0.60487,-0.40017 0.49007,0.72131 0,0 z m -10.08,-3.44021 c 0.39851,-1.05743 0.65226,0.76158 0,0 z m 3.9046,-0.45709 c -0.2856,-1.38468 1.29983,0.54196 0,0 z m -2.38952,-0.69932 c 1.05665,-2.96947 -0.0644,2.71971 0,0 z m -1.51508,-0.011 c 0.51793,-0.74807 0.25396,0.76779 0,0 z m 36.76974,-1.76122 c -0.31584,-1.36271 1.09375,0.77129 0,0 z m -1.19721,-0.46095 c 0.42357,-1.64454 1.08899,1.39761 0,0 z m -29.79753,-4.07783 c 0.25396,-0.76778 0.51793,0.74808 0,0 z M 83.9468,95.5796 c 9.25363,-2.71378 -3.33327,-7.58803 -2.2966,0.22616 1.93849,-1.14475 -0.68719,2.62324 2.2966,-0.22616 z m 1.79469,-14.94449 c 12.22216,2.28417 24.6803,-10.94317 16.69854,-22.201138 -6.71433,-9.354422 -23.15283,-8.179199 -26.85796,2.922241 4.67219,4.205737 -5.879,11.017807 2.44815,16.555257 1.95647,1.94727 4.95995,3.00545 7.71127,2.72364 z M 414.0163,75.75194 c 6.78678,-9.67174 -12.60525,-1.8345 -0.68208,0.3999 l 0.68257,-0.3999 0,0 z M 257.89824,70.44452 c -0.87563,-0.21658 -0.0301,0.74035 0,0 z M 65.73396,68.07983 c 6.22877,-3.20265 -2.65376,-6.411865 -0.80329,-0.34065 0.20419,0.22414 0.47393,0.93615 0.80329,0.34065 z M 61.94219,44.281239 c 4.0462,-2.978535 -0.4756,-5.7708 0.75551,-10.18479 7.34531,-7.578081 8.5925,14.00826 -0.75551,10.18479 z m 10.31051,-0.57267 c 1.00634,-6.663734 0.52763,-20.099051 6.165,-6.366934 -0.55254,2.837394 -2.37215,7.367234 -6.165,6.366934 z M 54.80237,42.699515 c -5.4131,-2.625273 -8.37854,-6.76522 -13.17285,-10.16736 2.13828,11.920783 -8.54726,3.197705 -5.51543,-6.131538 -5.48501,-9.635514 9.62581,-14.244139 17.35226,-9.546642 5.9886,11.612006 -1.25934,16.997505 -3.19002,17.885 2.60946,1.317659 17.09702,-7.012845 6.65803,2.895326 0.12464,2.737805 7.5798,4.467183 -2.13199,5.065214 z m -2.49967,-3.37554 c -0.25397,-0.767788 -0.51792,0.748083 0,0 z M 41.37444,28.837338 c 4.63012,0.06083 13.85743,-0.54096 10.48938,-7.336385 -6.67464,-7.636188 -18.27875,-0.987658 -10.48938,7.336385 z M 37.0777,28.311372 c -0.49008,-0.721308 -0.60485,0.400169 0,0 z"
     id="path2987"
     inkscape:connector-curvature="0"
     sodipodi:nodetypes="cccccccccccccccccccccccccccccccccccccccccccccccccccccccccccccccccccccccccccccccccccccccccccccccccccccccccccccccccccccccccccccccccccccccccccccccccccccccccccccccccccccccccccccccccccc" />
</svg>
