<?xml version="1.0" encoding="UTF-8" standalone="no"?>
<!-- Created with Inkscape (http://www.inkscape.org/) -->

<svg
   xmlns:dc="http://purl.org/dc/elements/1.1/"
   xmlns:cc="http://creativecommons.org/ns#"
   xmlns:rdf="http://www.w3.org/1999/02/22-rdf-syntax-ns#"
   xmlns:svg="http://www.w3.org/2000/svg"
   xmlns="http://www.w3.org/2000/svg"
   xmlns:sodipodi="http://sodipodi.sourceforge.net/DTD/sodipodi-0.dtd"
   xmlns:inkscape="http://www.inkscape.org/namespaces/inkscape"
   id="svg2"
   version="1.1"
   inkscape:version="0.48.4 r9939"
   width="345"
   height="427"
   sodipodi:docname="Screenshot from 2014-10-01 09:41:45.png">
  <metadata
     id="metadata8">
    <rdf:RDF>
      <cc:Work
         rdf:about="">
        <dc:format>image/svg+xml</dc:format>
        <dc:type
           rdf:resource="http://purl.org/dc/dcmitype/StillImage" />
        <dc:title></dc:title>
      </cc:Work>
    </rdf:RDF>
  </metadata>
  <defs
     id="defs6" />
  <sodipodi:namedview
     pagecolor="#ffffff"
     bordercolor="#666666"
     borderopacity="1"
     objecttolerance="10"
     gridtolerance="10"
     guidetolerance="10"
     inkscape:pageopacity="0"
     inkscape:pageshadow="2"
     inkscape:window-width="1366"
     inkscape:window-height="702"
     id="namedview4"
     showgrid="false"
     inkscape:zoom="0.55269321"
     inkscape:cx="172.5"
     inkscape:cy="213.5"
     inkscape:window-x="0"
     inkscape:window-y="27"
     inkscape:window-maximized="1"
     inkscape:current-layer="svg2" />
  <path
     style="fill:#000000"
     d="m 32.828216,393.66498 c -6.31626,-0.95905 -7.309973,-1.57736 -6.317012,-3.93056 0.464341,-1.10044 1.239984,-1.36854 2.402138,-0.8303 5.973167,2.76639 27.761794,4.08022 54.163469,3.266 38.408369,-1.18451 50.709629,-1.44724 68.210769,-1.45685 l 18.70301,-0.0103 0.55828,-3.07816 c 1.08615,-5.9886 1.48483,-93.28191 0.52586,-115.13982 -0.29014,-6.61312 -0.59969,-18.32963 -0.6879,-26.0367 -0.0882,-7.70706 -0.47853,-15.43065 -0.86739,-17.16354 -0.38886,-1.73287 -0.43448,-4.3594 -0.10138,-5.83672 l 0.60565,-2.68603 -8.39817,0.35614 c -4.61899,0.19588 -10.20319,0.4794 -12.40934,0.63005 -2.20615,0.15066 -8.51732,0.38684 -14.02484,0.52486 -16.17775,0.40541 -37.800338,1.32081 -41.403432,1.75283 -2.491216,0.29869 -3.090753,0.71943 -2.36258,1.65798 0.536687,0.69175 0.781779,2.1365 0.544648,3.21056 -0.23713,1.07407 -0.476655,2.28903 -0.532276,2.69992 -0.05562,0.4109 -0.852791,0.72235 -1.771486,0.69213 -0.918696,-0.0302 -2.498669,0.64652 -3.511054,1.50389 -3.84937,3.25993 -9.8874,-1.74497 -6.589912,-5.46236 1.693079,-1.90867 -0.207459,-3.37697 -3.94365,-3.04673 -1.413633,0.12495 -7.587267,0.11347 -13.719185,-0.0255 l -11.148944,-0.25271 -2.093128,3.295 c -2.52738,3.9786 -6.296203,5.30365 -13.779892,4.84472 l -5.617939,-0.34451 0.174462,8.51153 c 0.09595,4.68133 0.07123,19.76421 -0.05495,33.51749 -0.462722,50.43643 -0.315127,89.23629 0.369136,97.03838 0.385947,4.40064 0.652013,9.51215 0.591257,11.35891 -0.176039,5.35094 -2.431631,3.23275 -3.736519,-3.5089 -1.237807,-6.39508 -1.320886,-9.19466 -1.275719,-42.98814 0.01618,-12.10602 -0.02733,-24.0389 -0.0967,-26.51752 -0.06937,-2.47862 0.109566,-21.15784 0.397627,-41.50937 0.472766,-33.40097 0.359149,-37.15616 -1.167221,-38.57838 -5.474646,-5.10109 -5.867473,-11.13608 -1.043019,-16.02382 l 2.391311,-2.42268 2.170042,-49.45539 c 1.962914,-44.73492 2.629078,-90.946737 1.532941,-106.340132 -0.712412,-10.004625 1.964032,-10.992104 31.489227,-11.618011 10.462951,-0.221805 25.55994,-0.642276 33.548864,-0.934381 21.306413,-0.779041 66.778183,-1.59683 97.109933,-1.746479 14.58526,-0.07196 35.30659,-0.38012 46.04742,-0.684802 16.92098,-0.479993 19.71118,-0.791797 20.89477,-2.33499 1.65486,-2.157635 4.12041,-2.242166 4.83975,-0.165929 0.6677,1.92719 15.87242,2.564509 38.13116,1.598299 19.25173,-0.835681 18.55502,-1.322485 16.76601,11.714757 -1.60199,11.674264 -1.84414,40.755292 -0.49557,59.515098 0.55514,7.72243 0.92912,25.06911 0.83109,38.54817 -0.098,13.47907 0.0662,28.95579 0.36493,34.39273 0.29876,5.43693 0.30665,12.41596 0.0176,15.50896 -1.32985,14.2276 -2.87402,58.41692 -3.42729,98.07821 -0.33378,23.92696 -0.88646,54.39826 -1.22816,67.71398 -0.60432,23.54883 -0.68189,24.26726 -2.83865,26.29084 -4.87221,4.57136 -8.86552,4.73921 -73.99453,3.11002 -41.27072,-1.03239 -61.71034,-1.19497 -63.23356,-0.50298 -1.65485,0.75178 -2.60966,0.70412 -3.60638,-0.17998 -1.41872,-1.25846 -8.07446,-1.32732 -40.6819,-0.42088 -53.341032,1.4828 -87.034619,1.44888 -97.221625,-0.0979 z m 219.678764,-1.06745 c 0.62903,-0.83774 -0.21096,-37.58515 -1.17576,-51.43646 -1.09566,-15.73015 -1.50364,-21.88051 -1.98037,-29.85425 -0.42561,-7.11845 -1.13202,-11.70337 -2.6692,-17.32414 -1.9108,-6.98694 -8.42337,-21.78875 -9.6038,-21.82758 -0.53407,-0.0176 -0.95127,-0.63281 -0.92711,-1.36719 0.0242,-0.73437 -1.62364,-2.93433 -3.6618,-4.88879 -3.4571,-3.31515 -6.41319,-7.8223 -11.23002,-17.12244 -3.23479,-6.24561 -4.23315,-10.99794 -3.97281,-18.91124 l 0.24595,-7.47594 -9.6498,-0.16489 c -5.30739,-0.0907 -11.78208,0.004 -14.38822,0.21117 -3.95885,0.31418 -4.60088,0.64199 -3.90242,1.99245 1.08814,2.10387 -0.65293,5.12097 -2.91227,5.04664 -0.95245,-0.0313 -3.34499,-1.23255 -5.31673,-2.66937 l -3.58498,-2.6124 -2.28541,2.99593 c -2.04151,2.67623 -2.24683,3.81656 -1.92402,10.68563 0.19875,4.22933 0.44827,12.19498 0.55449,17.70145 0.10622,5.50647 0.36508,17.89668 0.57524,27.5338 0.21017,9.63712 0.30023,27.4247 0.20013,39.52795 -0.2293,27.724 -0.10242,47.43856 0.32202,50.03765 0.1807,1.10654 0.24454,5.61107 0.14186,10.01008 l -0.18669,7.99818 38.53024,1.13751 c 21.19162,0.62564 38.65229,0.97494 38.80148,0.77625 z m 48.45693,-0.98482 c 3.46491,-0.76084 6.88391,-2.04281 7.59778,-2.84883 1.45599,-1.64394 2.27387,-25.11802 4.00249,-114.87579 l 1.00618,-52.24516 -23.34684,-0.76809 -23.34684,-0.76808 1.07185,2.57358 c 0.88139,2.11622 0.76692,2.8591 -0.64416,4.18029 -1.59979,1.4979 -1.92016,1.44513 -4.73033,-0.77907 -2.76872,-2.19139 -3.16128,-2.2613 -4.81821,-0.85809 -2.36343,2.00153 -3.35949,1.89162 -5.34667,-0.58996 -1.42726,-1.78236 -2.87458,-2.09419 -10.90091,-2.3487 -5.09033,-0.16146 -11.00506,-0.0632 -13.14386,0.21822 l -3.88871,0.51168 0.21818,7.61101 c 0.27223,9.49659 4.24332,18.34095 13.10987,29.19818 8.24551,10.09674 14.77847,24.76749 17.34004,38.93961 1.64669,9.11049 3.98362,45.3713 4.39415,68.18135 0.0941,5.23092 0.30726,13.17847 0.47359,17.66121 l 0.30242,8.15043 17.17507,0.11978 c 11.01015,0.0768 19.43636,-0.37677 23.47491,-1.26357 z M 34.196088,225.8011 c -1.201559,-1.28331 1.68097,-3.28851 4.589749,-3.19282 2.601455,0.0856 2.804349,-0.12062 1.907138,-1.93834 -0.767874,-1.55568 -2.026929,-2.06776 -5.35299,-2.17719 -4.096637,-0.13477 -4.381173,0.0353 -4.904077,2.93167 -0.438841,2.43073 -0.123369,3.26609 1.506176,3.9883 2.615873,1.15934 3.045094,1.23329 2.254004,0.38838 z m 81.554082,-5.63644 c 9.08954,-0.29259 21.93769,-0.78542 28.55145,-1.0952 6.61377,-0.30977 14.61578,-0.6355 17.78226,-0.72384 3.16649,-0.0883 6.03744,-0.42297 6.3799,-0.74363 0.34247,-0.32064 -0.064,-1.63536 -0.90326,-2.92161 -1.89845,-2.90952 -1.87173,-5.55472 0.0662,-6.55705 1.24561,-0.64425 1.40558,-2.7352 1.01548,-13.27348 -0.64648,-17.46384 0.52679,-127.60532 1.57406,-147.764925 0.0922,-1.77464 -0.43916,-2.26578 -2.52603,-2.334869 -6.01499,-0.199086 -60.50566,1.110388 -70.237689,1.687955 -5.789428,0.343585 -18.856157,0.637482 -29.037176,0.653104 -10.181019,0.01562 -21.900947,0.428978 -26.044286,0.918568 l -7.533343,0.890165 -0.14173,8.992546 c -0.3929,24.928947 -2.726249,98.029556 -3.604846,112.934886 -0.550369,9.33695 -0.906057,22.15718 -0.790419,28.48941 l 0.21025,11.51314 2.676288,-0.22288 c 3.701198,-0.30823 10.525147,1.90756 12.556598,4.07722 2.305043,2.46187 24.493612,3.62996 29.907071,1.57442 3.245534,-1.23235 3.821639,-1.17486 6.728198,0.67152 l 3.17874,2.01927 1.88719,-3.84261 c 1.223059,-2.49033 2.548554,-3.82085 3.766523,-3.78078 2.357317,0.0776 3.714954,3.88126 2.46271,6.89981 -0.521401,1.25683 -0.952809,2.43132 -0.958687,2.60998 -0.0059,0.17864 1.45604,0.22041 3.248703,0.0929 1.792665,-0.12759 10.696285,-0.47137 19.785815,-0.76394 z m 199.66882,-44.98607 c 0.0735,-49.09222 -0.0585,-55.80465 -1.3589,-69.08204 -0.63679,-6.502009 -0.83657,-21.660022 -0.48592,-36.869019 l 0.59548,-25.827491 -23.0094,-0.09248 c -12.65517,-0.05086 -23.75216,0.08586 -24.65998,0.303837 -1.39506,0.334964 -1.52599,1.050636 -0.84586,4.623175 0.44259,2.324773 0.58044,4.982096 0.30632,5.905162 -0.27411,0.923065 -0.0899,8.142239 0.40936,16.042608 1.24778,19.745013 0.19233,51.234474 -2.03761,60.792564 -0.95557,4.0958 -2.62783,13.09019 -3.71614,19.98753 -1.08831,6.89735 -2.41939,13.90596 -2.95796,15.57471 -1.31759,4.08249 -8.77653,15.87616 -15.33474,24.24643 -2.94231,3.75529 -6.12692,8.37807 -7.07691,10.27286 -0.95,1.89479 -2.59267,5.21757 -3.65038,7.38397 -1.0577,2.16639 -2.11815,4.29836 -2.35654,4.73771 -0.2384,0.43935 5.16536,0.84225 12.00837,0.89533 l 12.44179,0.0965 -1.21838,-3.23591 c -1.34703,-3.57763 -0.80572,-5.8705 1.58117,-6.69746 2.00922,-0.69613 3.73475,0.85735 5.15971,4.64526 0.62188,1.6531 1.34872,3.01281 1.61521,3.02158 0.26647,0.009 2.23616,-1.27999 4.37704,-2.86391 4.54838,-3.36506 7.09128,-2.90064 6.95407,1.27004 -0.0608,1.84839 -1.01446,3.49609 -2.76994,4.78582 l -2.6772,1.9669 23.33962,1.0367 23.33961,1.03669 0.9856,-2.9692 c 0.58655,-1.76702 1.00865,-18.36234 1.04251,-40.98788 z m -129.76988,30.01458 c 0.63508,-0.3834 1.44823,-0.69433 1.807,-0.69095 1.22818,0.0116 2.46932,5.7593 1.54298,7.14552 -0.74502,1.11489 0.67931,1.50839 7.78562,2.15093 4.7836,0.43252 11.77728,0.73668 15.54151,0.67592 6.82662,-0.11019 6.84827,-0.11969 8.4914,-3.72281 0.90603,-1.98678 2.45253,-4.71144 3.43668,-6.05481 0.98415,-1.34337 2.89877,-4.88233 4.25471,-7.86436 1.35594,-2.98202 3.61821,-6.85498 5.02727,-8.60657 5.58827,-6.94677 12.05026,-16.45534 15.22687,-22.40579 2.96954,-5.56258 3.49686,-7.73561 4.72192,-19.45867 0.75849,-7.25825 2.40983,-16.76485 3.66964,-21.12578 1.92462,-6.66217 2.35319,-10.72438 2.68247,-25.425549 0.21553,-9.623116 0.26637,-18.851435 0.11297,-20.507374 -0.1534,-1.65594 -0.51642,-10.18286 -0.8067,-18.948712 -0.29029,-8.765853 -0.74796,-16.173049 -1.01704,-16.460436 -0.26909,-0.287387 -10.73784,-0.33378 -23.26392,-0.103108 -12.52607,0.230679 -29.529,0.439869 -37.78429,0.464867 -22.17038,0.06714 -21.12749,-0.218092 -21.98053,6.011585 -0.8601,6.281307 -3.79869,112.616577 -3.54239,128.182907 0.44015,26.72908 0.71284,29.48736 3.23178,32.68899 l 2.36227,3.00251 3.67254,-4.1256 c 2.0199,-2.26908 4.19216,-4.4393 4.82724,-4.82271 z"
     id="path2987"
     inkscape:connector-curvature="0" />
</svg>
