<?xml version="1.0" encoding="UTF-8" standalone="no"?>
<!-- Created with Inkscape (http://www.inkscape.org/) -->

<svg
   xmlns:dc="http://purl.org/dc/elements/1.1/"
   xmlns:cc="http://creativecommons.org/ns#"
   xmlns:rdf="http://www.w3.org/1999/02/22-rdf-syntax-ns#"
   xmlns:svg="http://www.w3.org/2000/svg"
   xmlns="http://www.w3.org/2000/svg"
   xmlns:sodipodi="http://sodipodi.sourceforge.net/DTD/sodipodi-0.dtd"
   xmlns:inkscape="http://www.inkscape.org/namespaces/inkscape"
   id="svg2"
   version="1.1"
   inkscape:version="0.48.4 r9939"
   width="361"
   height="467"
   sodipodi:docname="Screenshot from 2014-10-01 09:41:52.png">
  <metadata
     id="metadata8">
    <rdf:RDF>
      <cc:Work
         rdf:about="">
        <dc:format>image/svg+xml</dc:format>
        <dc:type
           rdf:resource="http://purl.org/dc/dcmitype/StillImage" />
        <dc:title></dc:title>
      </cc:Work>
    </rdf:RDF>
  </metadata>
  <defs
     id="defs6" />
  <sodipodi:namedview
     pagecolor="#ffffff"
     bordercolor="#666666"
     borderopacity="1"
     objecttolerance="10"
     gridtolerance="10"
     guidetolerance="10"
     inkscape:pageopacity="0"
     inkscape:pageshadow="2"
     inkscape:window-width="1366"
     inkscape:window-height="702"
     id="namedview4"
     showgrid="false"
     showguides="true"
     inkscape:guide-bbox="true"
     inkscape:zoom="0.50535332"
     inkscape:cx="180.5"
     inkscape:cy="233.5"
     inkscape:window-x="0"
     inkscape:window-y="27"
     inkscape:window-maximized="1"
     inkscape:current-layer="svg2">
    <sodipodi:guide
       orientation="1,0"
       position="-441.27542,138.51695"
       id="guide2987" />
  </sodipodi:namedview>
  <path
     style="fill:#000000"
     d="m 42.954592,439.37652 c -3.520864,-0.51906 -4.954285,-5.2797 -3.457519,-11.48302 0.905048,-3.75096 0.872759,-10.08663 -0.07545,-14.80371 -0.16631,-0.82735 0.185015,-9.83231 0.780727,-20.01102 0.667522,-11.40578 0.805666,-28.67185 0.360032,-44.99928 -0.39769,-14.57089 -0.831348,-37.2347 -0.963684,-50.36402 -0.21579,-21.40915 -0.446042,-24.28814 -2.232201,-27.91071 -1.095376,-2.22156 -2.202955,-6.40281 -2.461285,-9.29168 -0.403766,-4.51524 -0.152799,-5.56084 1.788002,-7.44933 2.121368,-2.06419 2.228871,-2.77997 1.780339,-11.8536 -0.262545,-5.31122 -0.561771,-20.2339 -0.664944,-33.16152 -0.103174,-12.92761 -0.64738,-25.96619 -1.209347,-28.97463 -0.561967,-3.00843 -0.716396,-7.79376 -0.343175,-10.63407 0.373222,-2.84032 0.275172,-12.98767 -0.217876,-22.54968 -0.493054,-9.56201 -0.78809,-31.11027 -0.655636,-47.885021 0.132455,-16.774755 -0.07437,-33.50013 -0.459599,-37.1675 -0.666783,-6.347663 -0.58761,-6.726355 1.648302,-7.883973 1.729112,-0.895228 12.008953,-1.14689 38.966902,-0.953956 27.427636,0.196295 37.130436,-0.04819 38.659166,-0.974123 1.18521,-0.717864 2.8259,-0.908352 3.91295,-0.454305 3.25267,1.358592 24.32716,0.869293 52.40397,-1.216695 36.06152,-2.679218 41.40411,-2.876309 87.23471,-3.218129 3.75544,-0.02801 4.81471,-0.429497 5.34556,-2.026074 0.83822,-2.521053 3.02342,-2.52712 4.73358,-0.01315 1.23143,1.810238 3.02753,1.988441 26.77291,2.656312 13.99912,0.393743 26.12852,1.051417 26.95423,1.461496 3.70053,1.837834 4.04352,7.570287 4.05409,67.755914 0.006,32.17808 0.24922,59.18393 0.54127,60.01299 1.58537,4.50066 2.33054,33.95573 2.18928,86.53798 -0.20687,77.01458 -0.40698,87.24921 -1.91709,98.05171 -1.63455,11.69269 -2.25857,53.12121 -0.91687,60.86751 0.56758,3.27676 0.75845,7.23437 0.42417,8.79467 -0.42431,1.98047 -0.16259,3.01477 0.8669,3.42605 0.81108,0.32402 1.46651,1.18903 1.4565,1.92224 -0.0217,1.59015 7.26889,1.62041 -107.50394,-0.44613 -14.88886,-0.26808 -25.13013,0.0466 -53.0272,1.62933 -6.05526,0.34354 -19.82065,0.5884 -30.58975,0.54412 -10.7691,-0.0443 -25.84968,0.26155 -33.5124,0.67961 -7.662727,0.41807 -20.909974,0.9136 -29.438332,1.10118 -8.528357,0.18758 -18.432433,0.41834 -22.009057,0.51278 -3.576623,0.0944 -7.724853,-0.008 -9.218289,-0.22858 z m 53.144251,-3.1799 37.395337,-1.21079 9.29724,-8.92838 c 5.11348,-4.91062 14.96852,-14.85329 21.90009,-22.09485 6.93157,-7.24154 17.39241,-16.92343 23.24631,-21.51532 12.49922,-9.80454 33.78949,-29.08799 51.85787,-46.96971 10.5572,-10.44815 12.67622,-13.01929 11.8418,-14.36851 -1.19691,-1.93538 -8.31724,-7.24352 -9.74254,-7.26299 -0.54261,-0.007 -0.98155,-0.38058 -0.97542,-0.82926 0.006,-0.44867 -1.74152,-1.83257 -3.88365,-3.07533 -4.24589,-2.46323 -10.24755,-9.49545 -13.52584,-15.84836 -1.14343,-2.21583 -3.07523,-5.84255 -4.2929,-8.05939 -4.58619,-8.34945 -5.57004,-11.27363 -6.16922,-18.33598 l -0.61587,-7.25909 -4.34889,-0.0594 c -3.82174,-0.0522 -14.41975,1.54933 -15.30002,2.31208 -0.17773,0.15401 0.24084,1.21116 0.93015,2.34922 1.72648,2.8505 0.33844,3.78749 -3.42115,2.30943 -2.0848,-0.81963 -3.4941,-0.9083 -4.15865,-0.26165 -1.5538,1.51192 -4.32374,1.11427 -4.99811,-0.7175 -0.33396,-0.90714 0.0683,-2.65023 0.89396,-3.87354 0.82564,-1.22329 1.31974,-2.41061 1.09802,-2.63848 -0.56385,-0.57947 -47.56575,-0.69145 -55.49051,-0.13225 -3.57879,0.25254 -10.54994,0.65774 -15.49145,0.90044 -4.94151,0.24269 -9.19527,0.64629 -9.4528,0.89689 -0.25753,0.25058 0.5076,1.15917 1.70028,2.01907 2.45349,1.76894 2.93577,6.461 0.66093,6.42993 -0.79247,-0.0108 -1.7128,-0.47344 -2.04517,-1.02803 -1.19928,-2.00109 -3.291704,-0.97634 -4.966665,2.43238 -1.846282,3.75737 -4.507092,4.49542 -6.647254,1.8438 -1.058552,-1.31152 -0.983451,-2.06629 0.437677,-4.39872 3.42721,-5.62491 2.689667,-6.30248 -5.998421,-5.51062 -4.268211,0.38902 -12.461988,0.66216 -18.208394,0.607 -10.29132,-0.0988 -10.457426,-0.0631 -11.075974,2.38009 -0.786046,3.10483 -6.264096,6.76867 -11.196448,7.48843 l -3.749983,0.54722 0.300968,9.14107 c 1.26022,38.2755 1.483349,122.13321 0.388039,145.8345 -0.14428,3.12205 0.02878,6.1622 0.384588,6.75588 0.901698,1.50456 10.28207,1.52751 53.42207,0.13072 z m 81.664227,-2.33647 c 7.79723,-0.67353 26.1465,-0.94283 45.76148,-0.67163 28.65745,0.39646 32.80506,0.26084 33.22668,-1.08466 0.26498,-0.84556 1.25805,-6.9273 2.20684,-13.51495 1.91907,-13.3246 1.75124,-31.94231 -0.39673,-44.00953 -0.68704,-3.85974 -1.20954,-13.09274 -1.16113,-20.51777 0.0965,-14.80168 -0.38797,-19.81102 -2.40353,-24.85098 l -1.33345,-3.33436 -11.86955,11.66703 c -15.70696,15.439 -35.48319,33.20781 -49.87054,44.80836 -6.42095,5.17722 -19.823,17.87146 -29.78233,28.20941 -9.95934,10.33795 -19.41847,19.73783 -21.0203,20.88861 -1.60182,1.15078 -2.6717,2.49395 -2.37751,2.98483 0.7009,1.16951 22.55609,0.84782 39.02007,-0.57436 z m 144.3823,-0.45456 c 0.20202,-0.18655 0.26133,-3.40273 0.13184,-7.14706 -0.55266,-15.97696 0.65494,-59.17736 2.11837,-75.78218 1.23437,-14.00578 1.38808,-21.40911 0.69539,-33.49363 -0.48908,-8.53247 -0.75213,-25.52515 -0.58456,-37.7615 0.18928,-13.82169 -0.0654,-22.25297 -0.67255,-22.26126 -2.18076,-0.0298 -4.15832,1.24677 -4.17813,2.6971 -0.0116,0.84688 -13.70643,14.76241 -30.43303,30.92338 l -30.41198,29.3836 2.02393,5.33498 c 2.82968,7.45888 3.68988,14.39843 3.57715,28.85837 -0.0536,6.87491 0.46782,15.65785 1.15869,19.51764 1.74539,9.7511 2.34919,34.5954 1.04551,43.0183 -0.59469,3.84223 -1.39069,9.40378 -1.76887,12.35899 l -0.68762,5.37311 28.8093,-0.34032 c 15.8451,-0.18718 28.97457,-0.49296 29.17658,-0.67952 z M 285.18863,290.93528 c 11.90923,-11.3884 24.14987,-23.2523 27.20141,-26.36423 8.11193,-8.27245 7.60199,-8.55916 -14.98186,-8.42351 -23.65086,0.14205 -38.72369,0.98602 -38.73985,2.16915 -0.007,0.51946 0.91096,2.28016 2.04011,3.91266 1.12916,1.6325 1.7849,3.63935 1.45719,4.45966 -0.52937,1.32513 -0.9166,1.32001 -3.47187,-0.0464 -1.58183,-0.84558 -3.17924,-2.34577 -3.54978,-3.33376 -0.59891,-1.59689 -0.93303,-1.48257 -3.00888,1.02958 -1.76526,2.13629 -2.85186,2.65416 -4.45238,2.12201 -2.18515,-0.72655 -2.85373,-3.97873 -1.04126,-5.06498 0.56364,-0.33779 0.74355,-1.08346 0.39979,-1.65705 -0.40142,-0.66979 -2.9991,-0.81802 -7.26133,-0.41435 -3.64998,0.34569 -9.28485,0.53662 -12.52194,0.4243 -7.02717,-0.24381 -8.43166,0.66536 -8.13001,5.26282 0.43145,6.57547 1.483,9.5349 6.87459,19.34753 8.24161,14.99964 9.09027,16.10377 16.21745,21.09925 3.64882,2.55748 7.15436,5.29442 7.79009,6.08208 0.63574,0.78766 1.76536,1.44044 2.51026,1.45061 0.74491,0.0102 2.11114,1.20862 3.03608,2.66321 l 1.68169,2.64471 3.14868,-3.32879 c 1.73176,-1.83034 12.89259,-12.64608 24.80182,-24.03447 z M 49.326065,265.65462 c 1.233958,-0.83941 2.255505,-2.40061 2.270104,-3.46932 0.02275,-1.66513 -0.688689,-1.95289 -4.97299,-2.01141 l -4.999534,-0.0683 -0.04781,3.49967 c -0.04316,3.15961 0.222051,3.50336 2.729429,3.53761 1.527479,0.0209 3.786837,-0.64886 5.020797,-1.48826 z m 35.922302,-9.5831 c 2.740088,-0.42977 3.030335,-0.7987 2.683338,-3.4108 -0.319303,-2.40361 -0.0307,-2.924 1.609221,-2.9016 1.099067,0.015 2.719996,1.16226 3.602066,2.54944 2.130908,3.35115 4.158122,3.21262 6.098218,-0.41674 2.73818,-5.12234 6.12137,-3.37956 5.61291,2.89138 l -0.2746,3.38682 21.29691,-0.49141 c 11.71331,-0.27027 28.83531,-0.35377 38.04888,-0.18554 9.21357,0.16826 16.97674,-0.047 17.2515,-0.47828 0.27475,-0.43127 -0.17751,-2.46888 -1.00501,-4.528 -2.87408,-7.15172 1.78481,-9.39123 5.0131,-2.40979 1.02092,2.20785 2.24306,4.01955 2.71587,4.02601 0.4728,0.006 2.32764,-2.01166 4.12186,-4.4847 2.31696,-3.19356 3.84889,-4.40422 5.28695,-4.17818 2.38783,0.37534 3.21807,4.23035 1.37602,6.38918 -0.68156,0.79879 -1.05465,1.64201 -0.82907,1.87383 0.22557,0.23183 3.87657,0.20691 8.11333,-0.0554 l 7.70319,-0.47688 1.19082,-3.59205 c 2.98623,-9.00781 7.69571,-14.51188 26.42642,-30.88511 7.61185,-6.6538 18.18802,-19.67282 18.22576,-22.43547 0.008,-0.55358 -4.86327,-5.39577 -10.82405,-10.76042 -5.96079,-5.36465 -19.29352,-19.3025 -29.6283,-30.97301 -10.33478,-11.67051 -19.39545,-21.57504 -20.13482,-22.01005 -0.73938,-0.43502 -6.16395,-5.3091 -12.0546,-10.83132 -17.11837,-16.04768 -17.86809,-16.73206 -24.32653,-22.20629 -3.38152,-2.86621 -9.9223,-8.965415 -14.53506,-13.553789 -4.61276,-4.588374 -11.50301,-10.840242 -15.31167,-13.893039 -3.80865,-3.052797 -9.60097,-8.2849 -12.87182,-11.626895 l -5.947,-6.076354 -36.973859,-0.01097 c -20.335627,-0.006 -37.172599,0.165719 -37.415496,0.381675 -0.80216,0.713189 -1.023378,71.509604 -0.279236,89.364044 0.401419,9.63138 0.819725,27.41376 0.929568,39.51639 0.357334,39.37152 0.785681,59.96114 1.307439,62.84553 0.483396,2.67231 0.727338,2.79566 4.402642,2.22624 3.079914,-0.47718 4.51468,-0.14568 6.883692,1.59045 1.64604,1.20631 2.981183,3.04363 2.966986,4.08295 -0.02264,1.65763 0.925089,1.94943 7.718261,2.37642 7.838284,0.49268 16.216829,0.25153 21.82617,-0.62831 z m 207.952513,-2.13523 c 11.5354,-0.0812 21.32783,-0.49238 21.76094,-0.91381 0.75129,-0.73105 -32.01263,-35.74253 -43.73334,-46.73339 l -5.58069,-5.23318 -4.70354,6.80766 c -5.63734,8.15918 -10.63506,13.41207 -21.29096,22.378 -4.39411,3.69722 -9.242,8.11029 -10.77311,9.80681 -3.35704,3.71973 -7.47294,11.12838 -6.80322,12.24586 0.26532,0.4427 4.46347,0.5558 9.32922,0.25134 4.86574,-0.30446 10.35184,-0.57218 12.19131,-0.59495 2.46063,-0.0305 3.48993,-0.56801 3.89478,-2.03407 0.64722,-2.34371 5.08831,-2.71723 5.90578,-0.4967 0.43971,1.19437 0.82746,1.15846 2.35309,-0.21788 3.8586,-3.481 6.38467,-4.91744 7.71386,-4.38644 1.83802,0.73427 1.6946,5.81387 -0.21665,7.67361 -2.52744,2.45933 -1.78368,2.90633 3.71981,2.23564 2.89259,-0.35251 14.6973,-0.70734 26.23272,-0.7885 z m 32.04577,-3.77859 c 0.73237,-3.12982 0.53191,-53.21388 -0.22907,-57.23044 -1.32116,-6.97329 -2.16441,-36.32307 -2.34146,-81.49669 -0.18769,-47.886898 -0.66554,-57.367969 -3.01299,-59.780433 -0.58194,-0.598061 -4.56445,-1.268889 -8.85002,-1.490728 -17.09422,-0.884869 -40.2326,-1.329315 -40.79346,-0.783567 -0.32692,0.318102 -0.1739,2.551534 0.34004,4.96318 2.12405,9.967084 2.5886,64.893398 0.73247,86.602788 -1.15667,13.52841 -1.39044,23.21905 -0.81487,33.77896 0.39718,7.28708 0.10165,10.27683 -1.54729,15.65293 l -2.03824,6.64539 24.3197,24.8808 c 22.8279,23.35455 30.93621,31.03393 32.79417,31.05931 0.43063,0.006 1.07909,-1.2548 1.44102,-2.8015 z m -62.60886,-63.29015 c 0.82708,-2.55903 1.28107,-7.59302 1.14855,-12.7355 -0.38089,-14.78113 -0.19085,-22.11784 0.94516,-36.49049 1.4721,-18.62493 1.74763,-49.483368 0.60713,-67.998053 -1.07186,-17.400325 -1.53933,-20.477331 -3.14008,-20.668198 -4.49381,-0.535827 -52.18623,-0.293718 -60.68041,0.308042 -17.09674,1.211199 -34.25249,2.518855 -38.54372,2.937904 -2.20315,0.215143 -12.56198,0.791099 -23.01963,1.279905 -10.45766,0.488804 -19.22607,1.083312 -19.48538,1.321126 -0.59403,0.544802 12.68025,13.589596 19.79105,19.448911 2.94301,2.425046 8.72727,7.679542 12.85391,11.676659 4.12663,3.997115 12.10527,11.380729 17.73032,16.408024 21.25604,18.99729 37.33019,34.89982 52.1738,51.61678 8.43548,9.50008 18.00266,19.82173 21.26042,22.93699 13.43722,12.84954 14.85527,14.11149 15.89992,14.14971 0.6002,0.022 1.70673,-1.86437 2.45896,-4.19181 z"
     id="path2989"
     inkscape:connector-curvature="0" />
</svg>
